<?xml version="1.0" encoding="UTF-8"?>
<svg id="a" data-name="Layer_1" xmlns="http://www.w3.org/2000/svg" xmlns:xlink="http://www.w3.org/1999/xlink" viewBox="0 0 857.68 493.95">
  <defs>
    <style>
      .cb, .cc, .cd, .ce, .cf, .cg, .ch, .ci, .cj, .ck {
        fill: none;
      }

      .cc {
        stroke: #ccc;
      }

      .cc, .cl {
        opacity: .8;
      }

      .cc, .cj {
        stroke-miterlimit: 10;
      }

      .cd {
        stroke: #33308d;
      }

      .cd, .ce, .cf, .cg, .ch, .ci, .ck {
        stroke-linejoin: round;
      }

      .cd, .ce, .ch {
        stroke-width: 6px;
      }

      .cd, .ce, .ch, .cj {
        stroke-linecap: square;
      }

      .cm {
        fill: #7fc0af;
      }

      .cn {
        fill: #33308d;
      }

      .cl, .co {
        fill: #fff;
      }

      .ce {
        stroke: #7fc0af;
      }

      .cf, .cg, .cj {
        stroke: #000;
      }

      .cf, .cj, .ck {
        stroke-width: .8px;
      }

      .cg {
        stroke-width: .6px;
      }

      .ch {
        stroke: #db4731;
      }

      .cp {
        fill: #db4731;
      }

      .ci {
        stroke: #fff;
        stroke-width: 2px;
      }

      .cq {
        clip-path: url(#x);
      }

      .cr {
        clip-path: url(#z);
      }

      .cs {
        clip-path: url(#t);
      }

      .ct {
        clip-path: url(#w);
      }

      .cu {
        clip-path: url(#v);
      }

      .cv {
        clip-path: url(#u);
      }

      .cw {
        clip-path: url(#y);
      }

      .cx {
        clip-path: url(#h);
      }

      .cy {
        clip-path: url(#k);
      }

      .cz {
        clip-path: url(#j);
      }

      .da {
        clip-path: url(#o);
      }

      .db {
        clip-path: url(#r);
      }

      .dc {
        clip-path: url(#q);
      }

      .dd {
        clip-path: url(#e);
      }

      .de {
        clip-path: url(#d);
      }

      .df {
        clip-path: url(#g);
      }

      .dg {
        clip-path: url(#f);
      }

      .dh {
        clip-path: url(#i);
      }

      .di {
        clip-path: url(#m);
      }

      .dj {
        clip-path: url(#l);
      }

      .dk {
        clip-path: url(#n);
      }

      .dl {
        clip-path: url(#p);
      }

      .dm {
        clip-path: url(#c);
      }

      .dn {
        clip-path: url(#b);
      }

      .do {
        clip-path: url(#s);
      }

      .dp {
        clip-path: url(#ae);
      }

      .dq {
        clip-path: url(#af);
      }

      .dr {
        clip-path: url(#aa);
      }

      .ds {
        clip-path: url(#ay);
      }

      .dt {
        clip-path: url(#at);
      }

      .du {
        clip-path: url(#aw);
      }

      .dv {
        clip-path: url(#ar);
      }

      .dw {
        clip-path: url(#as);
      }

      .dx {
        clip-path: url(#az);
      }

      .dy {
        clip-path: url(#ai);
      }

      .dz {
        clip-path: url(#aj);
      }

      .ea {
        clip-path: url(#ad);
      }

      .eb {
        clip-path: url(#ap);
      }

      .ec {
        clip-path: url(#av);
      }

      .ed {
        clip-path: url(#au);
      }

      .ee {
        clip-path: url(#ao);
      }

      .ef {
        clip-path: url(#al);
      }

      .eg {
        clip-path: url(#ak);
      }

      .eh {
        clip-path: url(#aq);
      }

      .ei {
        clip-path: url(#ag);
      }

      .ej {
        clip-path: url(#ab);
      }

      .ek {
        clip-path: url(#ax);
      }

      .el {
        clip-path: url(#am);
      }

      .em {
        clip-path: url(#ac);
      }

      .en {
        clip-path: url(#an);
      }

      .eo {
        clip-path: url(#ah);
      }

      .ep {
        clip-path: url(#ca);
      }

      .eq {
        clip-path: url(#ba);
      }

      .er {
        clip-path: url(#bh);
      }

      .es {
        clip-path: url(#bc);
      }

      .et {
        clip-path: url(#bb);
      }

      .eu {
        clip-path: url(#be);
      }

      .ev {
        clip-path: url(#bt);
      }

      .ew {
        clip-path: url(#bl);
      }

      .ex {
        clip-path: url(#bw);
      }

      .ey {
        clip-path: url(#bv);
      }

      .ez {
        clip-path: url(#by);
      }

      .fa {
        clip-path: url(#bz);
      }

      .fb {
        clip-path: url(#bd);
      }

      .fc {
        clip-path: url(#bo);
      }

      .fd {
        clip-path: url(#bn);
      }

      .fe {
        clip-path: url(#bq);
      }

      .ff {
        clip-path: url(#bx);
      }

      .fg {
        clip-path: url(#bs);
      }

      .fh {
        clip-path: url(#br);
      }

      .fi {
        clip-path: url(#bu);
      }

      .fj {
        clip-path: url(#bg);
      }

      .fk {
        clip-path: url(#bf);
      }

      .fl {
        clip-path: url(#bi);
      }

      .fm {
        clip-path: url(#bp);
      }

      .fn {
        clip-path: url(#bk);
      }

      .fo {
        clip-path: url(#bj);
      }

      .fp {
        clip-path: url(#bm);
      }

      .ck {
        opacity: .4;
        stroke: #b0b0b0;
        stroke-dasharray: 2.96 1.28;
      }
    </style>
    <clipPath id="b">
      <rect class="cb" x="93.23" y="45" width="728.25" height="370.34"/>
    </clipPath>
    <clipPath id="c">
      <rect class="cb" x="93.23" y="45" width="728.25" height="370.34"/>
    </clipPath>
    <clipPath id="d">
      <rect class="cb" x="93.23" y="45" width="728.25" height="370.34"/>
    </clipPath>
    <clipPath id="e">
      <rect class="cb" x="93.23" y="45" width="728.25" height="370.34"/>
    </clipPath>
    <clipPath id="f">
      <rect class="cb" x="93.23" y="45" width="728.25" height="370.34"/>
    </clipPath>
    <clipPath id="g">
      <rect class="cb" x="93.23" y="45" width="728.25" height="370.34"/>
    </clipPath>
    <clipPath id="h">
      <rect class="cb" x="93.23" y="45" width="728.25" height="370.34"/>
    </clipPath>
    <clipPath id="i">
      <rect class="cb" x="93.23" y="45" width="728.25" height="370.34"/>
    </clipPath>
    <clipPath id="j">
      <rect class="cb" x="93.23" y="45" width="728.25" height="370.34"/>
    </clipPath>
    <clipPath id="k">
      <rect class="cb" x="93.23" y="45" width="728.25" height="370.34"/>
    </clipPath>
    <clipPath id="l">
      <rect class="cb" x="93.23" y="45" width="728.25" height="370.34"/>
    </clipPath>
    <clipPath id="m">
      <rect class="cb" x="93.23" y="45" width="728.25" height="370.34"/>
    </clipPath>
    <clipPath id="n">
      <rect class="cb" x="93.23" y="45" width="728.25" height="370.34"/>
    </clipPath>
    <clipPath id="o">
      <rect class="cb" x="93.23" y="45" width="728.25" height="370.34"/>
    </clipPath>
    <clipPath id="p">
      <rect class="cb" x="93.23" y="45" width="728.25" height="370.34"/>
    </clipPath>
    <clipPath id="q">
      <rect class="cb" x="93.23" y="45" width="728.25" height="370.34"/>
    </clipPath>
    <clipPath id="r">
      <rect class="cb" x="93.23" y="45" width="728.25" height="370.34"/>
    </clipPath>
    <clipPath id="s">
      <rect class="cb" x="93.23" y="45" width="728.25" height="370.34"/>
    </clipPath>
    <clipPath id="t">
      <rect class="cb" x="93.23" y="45" width="728.25" height="370.34"/>
    </clipPath>
    <clipPath id="u">
      <rect class="cb" x="93.23" y="45" width="728.25" height="370.34"/>
    </clipPath>
    <clipPath id="v">
      <rect class="cb" x="93.23" y="45" width="728.25" height="370.34"/>
    </clipPath>
    <clipPath id="w">
      <rect class="cb" x="93.23" y="45" width="728.25" height="370.34"/>
    </clipPath>
    <clipPath id="x">
      <rect class="cb" x="93.23" y="45" width="728.25" height="370.34"/>
    </clipPath>
    <clipPath id="y">
      <rect class="cb" x="93.23" y="45" width="728.25" height="370.34"/>
    </clipPath>
    <clipPath id="z">
      <rect class="cb" x="93.23" y="45" width="728.25" height="370.34"/>
    </clipPath>
    <clipPath id="aa">
      <rect class="cb" x="93.23" y="45" width="728.25" height="370.34"/>
    </clipPath>
    <clipPath id="ab">
      <rect class="cb" x="93.23" y="45" width="728.25" height="370.34"/>
    </clipPath>
    <clipPath id="ac">
      <rect class="cb" x="93.23" y="45" width="728.25" height="370.34"/>
    </clipPath>
    <clipPath id="ad">
      <rect class="cb" x="93.23" y="45" width="728.25" height="370.34"/>
    </clipPath>
    <clipPath id="ae">
      <rect class="cb" x="93.23" y="45" width="728.25" height="370.34"/>
    </clipPath>
    <clipPath id="af">
      <rect class="cb" x="93.23" y="45" width="728.25" height="370.34"/>
    </clipPath>
    <clipPath id="ag">
      <rect class="cb" x="93.23" y="45" width="728.25" height="370.34"/>
    </clipPath>
    <clipPath id="ah">
      <rect class="cb" x="93.23" y="45" width="728.25" height="370.34"/>
    </clipPath>
    <clipPath id="ai">
      <rect class="cb" x="93.23" y="45" width="728.25" height="370.34"/>
    </clipPath>
    <clipPath id="aj">
      <rect class="cb" x="93.23" y="45" width="728.25" height="370.34"/>
    </clipPath>
    <clipPath id="ak">
      <rect class="cb" x="93.23" y="45" width="728.25" height="370.34"/>
    </clipPath>
    <clipPath id="al">
      <rect class="cb" x="93.23" y="45" width="728.25" height="370.34"/>
    </clipPath>
    <clipPath id="am">
      <rect class="cb" x="93.23" y="45" width="728.25" height="370.34"/>
    </clipPath>
    <clipPath id="an">
      <rect class="cb" x="93.23" y="45" width="728.25" height="370.34"/>
    </clipPath>
    <clipPath id="ao">
      <rect class="cb" x="93.23" y="45" width="728.25" height="370.34"/>
    </clipPath>
    <clipPath id="ap">
      <rect class="cb" x="93.23" y="45" width="728.25" height="370.34"/>
    </clipPath>
    <clipPath id="aq">
      <rect class="cb" x="93.23" y="45" width="728.25" height="370.34"/>
    </clipPath>
    <clipPath id="ar">
      <rect class="cb" x="93.23" y="45" width="728.25" height="370.34"/>
    </clipPath>
    <clipPath id="as">
      <rect class="cb" x="93.23" y="45" width="728.25" height="370.34"/>
    </clipPath>
    <clipPath id="at">
      <rect class="cb" x="93.23" y="45" width="728.25" height="370.34"/>
    </clipPath>
    <clipPath id="au">
      <rect class="cb" x="93.23" y="45" width="728.25" height="370.34"/>
    </clipPath>
    <clipPath id="av">
      <rect class="cb" x="93.23" y="45" width="728.25" height="370.34"/>
    </clipPath>
    <clipPath id="aw">
      <rect class="cb" x="93.23" y="45" width="728.25" height="370.34"/>
    </clipPath>
    <clipPath id="ax">
      <rect class="cb" x="93.23" y="45" width="728.25" height="370.34"/>
    </clipPath>
    <clipPath id="ay">
      <rect class="cb" x="93.23" y="45" width="728.25" height="370.34"/>
    </clipPath>
    <clipPath id="az">
      <rect class="cb" x="93.23" y="45" width="728.25" height="370.34"/>
    </clipPath>
    <clipPath id="ba">
      <rect class="cb" x="93.23" y="45" width="728.25" height="370.34"/>
    </clipPath>
    <clipPath id="bb">
      <rect class="cb" x="93.23" y="45" width="728.25" height="370.34"/>
    </clipPath>
    <clipPath id="bc">
      <rect class="cb" x="110.44" y="42.83" width="38" height="38"/>
    </clipPath>
    <clipPath id="bd">
      <rect class="cb" x="161.41" y="176.7" width="38" height="38"/>
    </clipPath>
    <clipPath id="be">
      <rect class="cb" x="191.22" y="228.27" width="38" height="38"/>
    </clipPath>
    <clipPath id="bf">
      <rect class="cb" x="212.38" y="257.39" width="38" height="38"/>
    </clipPath>
    <clipPath id="bg">
      <rect class="cb" x="228.79" y="276.29" width="38" height="38"/>
    </clipPath>
    <clipPath id="bh">
      <rect class="cb" x="242.19" y="293.55" width="38" height="38"/>
    </clipPath>
    <clipPath id="bi">
      <rect class="cb" x="253.53" y="305.88" width="38" height="38"/>
    </clipPath>
    <clipPath id="bj">
      <rect class="cb" x="263.35" y="316.35" width="38" height="38"/>
    </clipPath>
    <clipPath id="bk">
      <rect class="cb" x="93.23" y="45" width="728.25" height="370.34"/>
    </clipPath>
    <clipPath id="bl">
      <rect class="cb" x="296.57" y="274.06" width="38" height="38"/>
    </clipPath>
    <clipPath id="bm">
      <rect class="cb" x="347.54" y="341.65" width="38" height="38"/>
    </clipPath>
    <clipPath id="bn">
      <rect class="cb" x="377.36" y="357.58" width="38" height="38"/>
    </clipPath>
    <clipPath id="bo">
      <rect class="cb" x="398.51" y="362.28" width="38" height="38"/>
    </clipPath>
    <clipPath id="bp">
      <rect class="cb" x="414.92" y="363.64" width="38" height="38"/>
    </clipPath>
    <clipPath id="bq">
      <rect class="cb" x="428.33" y="365.55" width="38" height="38"/>
    </clipPath>
    <clipPath id="br">
      <rect class="cb" x="439.66" y="368.93" width="38" height="38"/>
    </clipPath>
    <clipPath id="bs">
      <rect class="cb" x="449.48" y="366.87" width="38" height="38"/>
    </clipPath>
    <clipPath id="bt">
      <rect class="cb" x="93.23" y="45" width="728.25" height="370.34"/>
    </clipPath>
    <clipPath id="bu">
      <rect class="cb" x="587.74" y="336.48" width="38" height="38"/>
    </clipPath>
    <clipPath id="bv">
      <rect class="cb" x="638.71" y="363.3" width="38" height="38"/>
    </clipPath>
    <clipPath id="bw">
      <rect class="cb" x="668.52" y="364.14" width="38" height="38"/>
    </clipPath>
    <clipPath id="bx">
      <rect class="cb" x="689.68" y="370.16" width="38" height="38"/>
    </clipPath>
    <clipPath id="by">
      <rect class="cb" x="706.09" y="371.05" width="38" height="38"/>
    </clipPath>
    <clipPath id="bz">
      <rect class="cb" x="740.65" y="379.5" width="38" height="38"/>
    </clipPath>
    <clipPath id="ca">
      <rect class="cb" x="757.06" y="377.29" width="38" height="38"/>
    </clipPath>
  </defs>
  <rect class="co" width="857.68" height="493.95"/>
  <rect class="co" x="93.23" y="45" width="728.25" height="370.34"/>
  <g class="dn">
    <line class="ck" x1="144.2" y1="415.33" x2="144.2" y2="45"/>
  </g>
  <line class="cf" x1="144.2" y1="415.33" x2="144.2" y2="418.83"/>
  <polygon points="118.43 439.39 122.61 439.39 122.61 424.93 118.06 425.84 118.06 423.5 122.59 422.59 125.16 422.59 125.16 439.39 129.35 439.39 129.35 441.54 118.43 441.54 118.43 439.39"/>
  <path d="M140.01,422.25c2.11,0,3.72.86,4.86,2.52,1.12,1.69,1.69,4.13,1.69,7.31s-.57,5.64-1.69,7.31c-1.14,1.66-2.76,2.5-4.89,2.5s-3.74-.83-4.86-2.5c-1.12-1.66-1.66-4.11-1.66-7.31s.55-5.62,1.66-7.31c1.12-1.66,2.76-2.52,4.89-2.52ZM140.01,424.28c-1.33,0-2.31.65-2.99,1.95-.68,1.3-.99,3.25-.99,5.85s.31,4.55.99,5.85c.68,1.3,1.66,1.95,2.99,1.95s2.31-.65,2.99-1.95c.65-1.3.99-3.25.99-5.85s-.34-4.55-.99-5.85c-.68-1.3-1.66-1.95-2.99-1.95Z"/>
  <polygon points="150.79 430.08 153.72 430.08 153.72 419.96 150.54 420.6 150.54 418.96 153.7 418.32 155.5 418.32 155.5 430.08 158.43 430.08 158.43 431.59 150.79 431.59 150.79 430.08"/>
  <path d="M165.68,425.69c.8,0,1.44-.27,1.91-.82.47-.55.71-1.31.71-2.28s-.24-1.71-.71-2.26c-.47-.55-1.11-.84-1.91-.84s-1.44.29-1.91.84c-.47.55-.71,1.31-.71,2.26s.24,1.73.71,2.28c.47.55,1.11.82,1.91.82ZM162.12,431.32v-1.64c.44.22.89.38,1.37.49.46.11.91.16,1.36.16,1.16,0,2.07-.38,2.69-1.18.62-.8.98-2,1.09-3.64-.36.51-.8.91-1.31,1.18-.53.27-1.11.4-1.75.4-1.35,0-2.4-.4-3.17-1.2-.76-.8-1.15-1.89-1.15-3.29s.4-2.44,1.2-3.28c.8-.82,1.87-1.24,3.22-1.24,1.53,0,2.71.6,3.51,1.77.8,1.18,1.22,2.89,1.22,5.11s-.51,3.77-1.49,5c-1,1.24-2.33,1.86-4,1.86-.45,0-.91-.05-1.36-.13-.47-.07-.95-.2-1.44-.38Z"/>
  <g class="dm">
    <line class="ck" x1="313.52" y1="415.33" x2="313.52" y2="45"/>
  </g>
  <line class="cf" x1="313.52" y1="415.33" x2="313.52" y2="418.83"/>
  <polygon points="287.74 439.39 291.93 439.39 291.93 424.93 287.38 425.84 287.38 423.5 291.9 422.59 294.48 422.59 294.48 439.39 298.66 439.39 298.66 441.54 287.74 441.54 287.74 439.39"/>
  <path d="M309.33,422.25c2.11,0,3.72.86,4.86,2.52,1.12,1.69,1.69,4.13,1.69,7.31s-.57,5.64-1.69,7.31c-1.14,1.66-2.76,2.5-4.89,2.5s-3.74-.83-4.86-2.5c-1.12-1.66-1.66-4.11-1.66-7.31s.55-5.62,1.66-7.31c1.12-1.66,2.76-2.52,4.89-2.52ZM309.33,424.28c-1.33,0-2.31.65-2.99,1.95-.68,1.3-.99,3.25-.99,5.85s.31,4.55.99,5.85c.68,1.3,1.66,1.95,2.99,1.95s2.31-.65,2.99-1.95c.65-1.3.99-3.25.99-5.85s-.34-4.55-.99-5.85c-.68-1.3-1.66-1.95-2.99-1.95Z"/>
  <path d="M321.35,430.08h6.26v1.51h-8.43v-1.51c.67-.69,1.6-1.64,2.78-2.84,1.16-1.18,1.91-1.95,2.22-2.29.58-.64.98-1.18,1.2-1.64.22-.44.35-.89.35-1.33,0-.69-.25-1.27-.75-1.71s-1.13-.67-1.93-.67c-.56,0-1.16.11-1.78.29-.62.2-1.29.49-2,.89v-1.82c.73-.29,1.4-.51,2.02-.66.62-.15,1.2-.22,1.73-.22,1.37,0,2.46.35,3.28,1.04.82.69,1.24,1.6,1.24,2.75,0,.55-.11,1.07-.31,1.55-.2.49-.56,1.07-1.11,1.73-.15.18-.62.67-1.42,1.49s-1.91,1.97-3.35,3.44Z"/>
  <path d="M335.22,418.09c1.47,0,2.6.6,3.4,1.77.78,1.18,1.18,2.89,1.18,5.11s-.4,3.95-1.18,5.11c-.8,1.16-1.93,1.75-3.42,1.75s-2.62-.58-3.4-1.75-1.16-2.88-1.16-5.11.38-3.93,1.16-5.11c.78-1.16,1.93-1.77,3.42-1.77ZM335.22,419.51c-.93,0-1.62.46-2.09,1.37-.47.91-.69,2.28-.69,4.1s.22,3.18.69,4.1c.47.91,1.16,1.36,2.09,1.36s1.62-.46,2.09-1.36c.45-.91.69-2.28.69-4.1s-.24-3.19-.69-4.1c-.47-.91-1.16-1.37-2.09-1.37Z"/>
  <g class="de">
    <line class="ck" x1="482.84" y1="415.33" x2="482.84" y2="45"/>
  </g>
  <line class="cf" x1="482.84" y1="415.33" x2="482.84" y2="418.83"/>
  <polygon points="457.06 439.39 461.25 439.39 461.25 424.93 456.7 425.84 456.7 423.5 461.22 422.59 463.8 422.59 463.8 439.39 467.98 439.39 467.98 441.54 457.06 441.54 457.06 439.39"/>
  <path d="M478.65,422.25c2.11,0,3.72.86,4.86,2.52,1.12,1.69,1.69,4.13,1.69,7.31s-.57,5.64-1.69,7.31c-1.14,1.66-2.76,2.5-4.89,2.5s-3.74-.83-4.86-2.5c-1.12-1.66-1.66-4.11-1.66-7.31s.55-5.62,1.66-7.31c1.12-1.66,2.76-2.52,4.89-2.52ZM478.65,424.28c-1.33,0-2.31.65-2.99,1.95-.68,1.3-.99,3.25-.99,5.85s.31,4.55.99,5.85c.68,1.3,1.66,1.95,2.99,1.95s2.31-.65,2.99-1.95c.65-1.3.99-3.25.99-5.85s-.34-4.55-.99-5.85c-.68-1.3-1.66-1.95-2.99-1.95Z"/>
  <path d="M490.67,430.08h6.26v1.51h-8.43v-1.51c.67-.69,1.6-1.64,2.78-2.84,1.16-1.18,1.91-1.95,2.22-2.29.58-.64.98-1.18,1.2-1.64.22-.44.35-.89.35-1.33,0-.69-.25-1.27-.75-1.71s-1.13-.67-1.93-.67c-.56,0-1.16.11-1.78.29-.62.2-1.29.49-2,.89v-1.82c.73-.29,1.4-.51,2.02-.66.62-.15,1.2-.22,1.73-.22,1.37,0,2.46.35,3.28,1.04.82.69,1.24,1.6,1.24,2.75,0,.55-.11,1.07-.31,1.55-.2.49-.56,1.07-1.11,1.73-.15.18-.62.67-1.42,1.49s-1.91,1.97-3.35,3.44Z"/>
  <polygon points="501.01 430.08 503.94 430.08 503.94 419.96 500.75 420.6 500.75 418.96 503.92 418.32 505.72 418.32 505.72 430.08 508.65 430.08 508.65 431.59 501.01 431.59 501.01 430.08"/>
  <g class="dd">
    <line class="ck" x1="652.16" y1="415.33" x2="652.16" y2="45"/>
  </g>
  <line class="cf" x1="652.16" y1="415.33" x2="652.16" y2="418.83"/>
  <polygon points="626.38 439.39 630.57 439.39 630.57 424.93 626.02 425.84 626.02 423.5 630.54 422.59 633.12 422.59 633.12 439.39 637.3 439.39 637.3 441.54 626.38 441.54 626.38 439.39"/>
  <path d="M647.97,422.25c2.11,0,3.72.86,4.86,2.52,1.12,1.69,1.69,4.13,1.69,7.31s-.57,5.64-1.69,7.31c-1.14,1.66-2.76,2.5-4.89,2.5s-3.74-.83-4.86-2.5c-1.12-1.66-1.66-4.11-1.66-7.31s.55-5.62,1.66-7.31c1.12-1.66,2.76-2.52,4.89-2.52ZM647.97,424.28c-1.33,0-2.31.65-2.99,1.95-.68,1.3-.99,3.25-.99,5.85s.31,4.55.99,5.85c.68,1.3,1.66,1.95,2.99,1.95s2.31-.65,2.99-1.95c.65-1.3.99-3.25.99-5.85s-.34-4.55-.99-5.85c-.68-1.3-1.66-1.95-2.99-1.95Z"/>
  <path d="M659.98,430.08h6.26v1.51h-8.43v-1.51c.67-.69,1.6-1.64,2.78-2.84,1.16-1.18,1.91-1.95,2.22-2.29.58-.64.98-1.18,1.2-1.64.22-.44.35-.89.35-1.33,0-.69-.25-1.27-.75-1.71s-1.13-.67-1.93-.67c-.56,0-1.16.11-1.78.29-.62.2-1.29.49-2,.89v-1.82c.73-.29,1.4-.51,2.02-.66.62-.15,1.2-.22,1.73-.22,1.36,0,2.46.35,3.28,1.04.82.69,1.24,1.6,1.24,2.75,0,.55-.11,1.07-.31,1.55-.2.49-.56,1.07-1.11,1.73-.15.18-.62.67-1.42,1.49s-1.91,1.97-3.35,3.44Z"/>
  <path d="M671.56,430.08h6.26v1.51h-8.43v-1.51c.67-.69,1.6-1.64,2.78-2.84,1.16-1.18,1.91-1.95,2.22-2.29.58-.64.98-1.18,1.2-1.64.22-.44.35-.89.35-1.33,0-.69-.25-1.27-.75-1.71s-1.13-.67-1.93-.67c-.56,0-1.16.11-1.78.29-.62.2-1.29.49-2,.89v-1.82c.73-.29,1.4-.51,2.02-.66.62-.15,1.2-.22,1.73-.22,1.36,0,2.46.35,3.28,1.04.82.69,1.24,1.6,1.24,2.75,0,.55-.11,1.07-.31,1.55-.2.49-.56,1.07-1.11,1.73-.15.18-.62.67-1.42,1.49s-1.91,1.97-3.35,3.44Z"/>
  <g class="dg">
    <line class="ck" x1="821.48" y1="415.33" x2="821.48" y2="45"/>
  </g>
  <line class="cf" x1="821.48" y1="415.33" x2="821.48" y2="418.83"/>
  <polygon points="795.7 439.39 799.89 439.39 799.89 424.93 795.34 425.84 795.34 423.5 799.86 422.59 802.43 422.59 802.43 439.39 806.62 439.39 806.62 441.54 795.7 441.54 795.7 439.39"/>
  <path d="M817.29,422.25c2.11,0,3.72.86,4.86,2.52,1.12,1.69,1.69,4.13,1.69,7.31s-.57,5.64-1.69,7.31c-1.14,1.66-2.76,2.5-4.89,2.5s-3.74-.83-4.86-2.5c-1.12-1.66-1.66-4.11-1.66-7.31s.55-5.62,1.66-7.31c1.12-1.66,2.76-2.52,4.89-2.52ZM817.29,424.28c-1.33,0-2.31.65-2.99,1.95-.68,1.3-.99,3.25-.99,5.85s.31,4.55.99,5.85c.68,1.3,1.66,1.95,2.99,1.95s2.31-.65,2.99-1.95c.65-1.3.99-3.25.99-5.85s-.34-4.55-.99-5.85c-.68-1.3-1.66-1.95-2.99-1.95Z"/>
  <path d="M829.3,430.08h6.26v1.51h-8.43v-1.51c.67-.69,1.6-1.64,2.78-2.84,1.16-1.18,1.91-1.95,2.22-2.29.58-.64.98-1.18,1.2-1.64.22-.44.35-.89.35-1.33,0-.69-.25-1.27-.75-1.71s-1.13-.67-1.93-.67c-.56,0-1.16.11-1.78.29-.62.2-1.29.49-2,.89v-1.82c.73-.29,1.4-.51,2.02-.66.62-.15,1.2-.22,1.73-.22,1.36,0,2.46.35,3.28,1.04.82.69,1.24,1.6,1.24,2.75,0,.55-.11,1.07-.31,1.55-.2.49-.56,1.07-1.11,1.73-.15.18-.62.67-1.42,1.49s-1.91,1.97-3.35,3.44Z"/>
  <path d="M844.78,424.44c.86.18,1.53.56,2,1.15.47.58.73,1.31.73,2.15,0,1.31-.46,2.33-1.35,3.04-.91.71-2.18,1.06-3.84,1.06-.56,0-1.15-.05-1.73-.16-.58-.09-1.2-.25-1.82-.47v-1.73c.49.29,1.04.51,1.64.66.58.15,1.2.22,1.86.22,1.13,0,1.98-.22,2.57-.66s.89-1.09.89-1.95c0-.76-.27-1.38-.82-1.82s-1.31-.67-2.29-.67h-1.55v-1.47h1.62c.87,0,1.55-.16,2.02-.53.47-.35.71-.86.71-1.53s-.25-1.2-.73-1.57c-.49-.36-1.18-.55-2.07-.55-.49,0-1.02.05-1.58.16s-1.18.27-1.86.49v-1.6c.67-.18,1.31-.33,1.91-.42.58-.09,1.15-.15,1.69-.15,1.35,0,2.42.31,3.22.93.8.62,1.2,1.46,1.2,2.51,0,.73-.22,1.35-.64,1.86-.42.51-1.02.87-1.78,1.06Z"/>
  <g class="df">
    <line class="ck" x1="93.23" y1="415.33" x2="93.23" y2="45"/>
  </g>
  <line class="cg" x1="93.23" y1="415.33" x2="93.23" y2="417.33"/>
  <g class="cx">
    <line class="ck" x1="106.64" y1="415.33" x2="106.64" y2="45"/>
  </g>
  <line class="cg" x1="106.64" y1="415.33" x2="106.64" y2="417.33"/>
  <g class="dh">
    <line class="ck" x1="117.97" y1="415.33" x2="117.97" y2="45"/>
  </g>
  <line class="cg" x1="117.97" y1="415.33" x2="117.97" y2="417.33"/>
  <g class="cz">
    <line class="ck" x1="127.79" y1="415.33" x2="127.79" y2="45"/>
  </g>
  <line class="cg" x1="127.79" y1="415.33" x2="127.79" y2="417.33"/>
  <g class="cy">
    <line class="ck" x1="136.45" y1="415.33" x2="136.45" y2="45"/>
  </g>
  <line class="cg" x1="136.45" y1="415.33" x2="136.45" y2="417.33"/>
  <g class="dj">
    <line class="ck" x1="195.17" y1="415.33" x2="195.17" y2="45"/>
  </g>
  <line class="cg" x1="195.17" y1="415.33" x2="195.17" y2="417.33"/>
  <g class="di">
    <line class="ck" x1="224.99" y1="415.33" x2="224.99" y2="45"/>
  </g>
  <line class="cg" x1="224.99" y1="415.33" x2="224.99" y2="417.33"/>
  <g class="dk">
    <line class="ck" x1="246.14" y1="415.33" x2="246.14" y2="45"/>
  </g>
  <line class="cg" x1="246.14" y1="415.33" x2="246.14" y2="417.33"/>
  <g class="da">
    <line class="ck" x1="262.55" y1="415.33" x2="262.55" y2="45"/>
  </g>
  <line class="cg" x1="262.55" y1="415.33" x2="262.55" y2="417.33"/>
  <g class="dl">
    <line class="ck" x1="275.96" y1="415.33" x2="275.96" y2="45"/>
  </g>
  <line class="cg" x1="275.96" y1="415.33" x2="275.96" y2="417.33"/>
  <g class="dc">
    <line class="ck" x1="287.29" y1="415.33" x2="287.29" y2="45"/>
  </g>
  <line class="cg" x1="287.29" y1="415.33" x2="287.29" y2="417.33"/>
  <g class="db">
    <line class="ck" x1="297.11" y1="415.33" x2="297.11" y2="45"/>
  </g>
  <line class="cg" x1="297.11" y1="415.33" x2="297.11" y2="417.33"/>
  <g class="do">
    <line class="ck" x1="305.77" y1="415.33" x2="305.77" y2="45"/>
  </g>
  <line class="cg" x1="305.77" y1="415.33" x2="305.77" y2="417.33"/>
  <g class="cs">
    <line class="ck" x1="364.49" y1="415.33" x2="364.49" y2="45"/>
  </g>
  <line class="cg" x1="364.49" y1="415.33" x2="364.49" y2="417.33"/>
  <g class="cv">
    <line class="ck" x1="394.31" y1="415.33" x2="394.31" y2="45"/>
  </g>
  <line class="cg" x1="394.31" y1="415.33" x2="394.31" y2="417.33"/>
  <g class="cu">
    <line class="ck" x1="415.46" y1="415.33" x2="415.46" y2="45"/>
  </g>
  <line class="cg" x1="415.46" y1="415.33" x2="415.46" y2="417.33"/>
  <g class="ct">
    <line class="ck" x1="431.87" y1="415.33" x2="431.87" y2="45"/>
  </g>
  <line class="cg" x1="431.87" y1="415.33" x2="431.87" y2="417.33"/>
  <g class="cq">
    <line class="ck" x1="445.28" y1="415.33" x2="445.28" y2="45"/>
  </g>
  <line class="cg" x1="445.28" y1="415.33" x2="445.28" y2="417.33"/>
  <g class="cw">
    <line class="ck" x1="456.61" y1="415.33" x2="456.61" y2="45"/>
  </g>
  <line class="cg" x1="456.61" y1="415.33" x2="456.61" y2="417.33"/>
  <g class="cr">
    <line class="ck" x1="466.43" y1="415.33" x2="466.43" y2="45"/>
  </g>
  <line class="cg" x1="466.43" y1="415.33" x2="466.43" y2="417.33"/>
  <g class="dr">
    <line class="ck" x1="475.09" y1="415.33" x2="475.09" y2="45"/>
  </g>
  <line class="cg" x1="475.09" y1="415.33" x2="475.09" y2="417.33"/>
  <g class="ej">
    <line class="ck" x1="533.81" y1="415.33" x2="533.81" y2="45"/>
  </g>
  <line class="cg" x1="533.81" y1="415.33" x2="533.81" y2="417.33"/>
  <g class="em">
    <line class="ck" x1="563.62" y1="415.33" x2="563.62" y2="45"/>
  </g>
  <line class="cg" x1="563.62" y1="415.33" x2="563.62" y2="417.33"/>
  <g class="ea">
    <line class="ck" x1="584.78" y1="415.33" x2="584.78" y2="45"/>
  </g>
  <line class="cg" x1="584.78" y1="415.33" x2="584.78" y2="417.33"/>
  <g class="dp">
    <line class="ck" x1="601.19" y1="415.33" x2="601.19" y2="45"/>
  </g>
  <line class="cg" x1="601.19" y1="415.33" x2="601.19" y2="417.33"/>
  <g class="dq">
    <line class="ck" x1="614.59" y1="415.33" x2="614.59" y2="45"/>
  </g>
  <line class="cg" x1="614.59" y1="415.33" x2="614.59" y2="417.33"/>
  <g class="ei">
    <line class="ck" x1="625.93" y1="415.33" x2="625.93" y2="45"/>
  </g>
  <line class="cg" x1="625.93" y1="415.33" x2="625.93" y2="417.33"/>
  <g class="eo">
    <line class="ck" x1="635.75" y1="415.33" x2="635.75" y2="45"/>
  </g>
  <line class="cg" x1="635.75" y1="415.33" x2="635.75" y2="417.33"/>
  <g class="dy">
    <line class="ck" x1="644.41" y1="415.33" x2="644.41" y2="45"/>
  </g>
  <line class="cg" x1="644.41" y1="415.33" x2="644.41" y2="417.33"/>
  <g class="dz">
    <line class="ck" x1="703.13" y1="415.33" x2="703.13" y2="45"/>
  </g>
  <line class="cg" x1="703.13" y1="415.33" x2="703.13" y2="417.33"/>
  <g class="eg">
    <line class="ck" x1="732.94" y1="415.33" x2="732.94" y2="45"/>
  </g>
  <line class="cg" x1="732.94" y1="415.33" x2="732.94" y2="417.33"/>
  <g class="ef">
    <line class="ck" x1="754.1" y1="415.33" x2="754.1" y2="45"/>
  </g>
  <line class="cg" x1="754.1" y1="415.33" x2="754.1" y2="417.33"/>
  <g class="el">
    <line class="ck" x1="770.51" y1="415.33" x2="770.51" y2="45"/>
  </g>
  <line class="cg" x1="770.51" y1="415.33" x2="770.51" y2="417.33"/>
  <g class="en">
    <line class="ck" x1="783.91" y1="415.33" x2="783.91" y2="45"/>
  </g>
  <line class="cg" x1="783.91" y1="415.33" x2="783.91" y2="417.33"/>
  <g class="ee">
    <line class="ck" x1="795.25" y1="415.33" x2="795.25" y2="45"/>
  </g>
  <line class="cg" x1="795.25" y1="415.33" x2="795.25" y2="417.33"/>
  <g class="eb">
    <line class="ck" x1="805.07" y1="415.33" x2="805.07" y2="45"/>
  </g>
  <line class="cg" x1="805.07" y1="415.33" x2="805.07" y2="417.33"/>
  <g class="eh">
    <line class="ck" x1="813.73" y1="415.33" x2="813.73" y2="45"/>
  </g>
  <line class="cg" x1="813.73" y1="415.33" x2="813.73" y2="417.33"/>
  <polygon points="332.1 458.42 352.26 458.42 352.26 462.68 345 462.68 345 480.29 339.36 480.29 339.36 462.68 332.1 462.68 332.1 458.42"/>
  <path d="M363.81,468.35c-.48-.21-.93-.36-1.38-.48-.45-.09-.9-.15-1.35-.15-1.35,0-2.4.45-3.12,1.29-.72.87-1.08,2.1-1.08,3.72v7.56h-5.25v-16.41h5.25v2.7c.66-1.08,1.41-1.86,2.31-2.34.87-.48,1.92-.75,3.15-.75.18,0,.36.03.57.03.18,0,.48.03.9.09v4.74Z"/>
  <path d="M381.78,470.93v9.36h-5.28v-2.43c-.72,1.02-1.5,1.74-2.37,2.16-.9.42-1.95.66-3.21.66-1.71,0-3.09-.48-4.14-1.47-1.08-.96-1.59-2.25-1.59-3.84,0-1.92.66-3.33,1.98-4.23,1.32-.9,3.39-1.35,6.24-1.35h3.09v-.42c0-.81-.33-1.41-.99-1.8-.66-.39-1.68-.6-3.06-.6-1.14,0-2.19.12-3.15.36-.96.24-1.86.57-2.67.99v-3.99c1.11-.27,2.22-.48,3.36-.63,1.14-.12,2.28-.21,3.42-.21,2.94,0,5.07.6,6.39,1.77,1.32,1.17,1.98,3.06,1.98,5.67ZM373.77,472.91c-1.11,0-1.95.21-2.49.57-.54.36-.81.9-.81,1.62,0,.66.21,1.2.66,1.56.45.39,1.08.57,1.86.57.99,0,1.83-.33,2.49-1.05.66-.72,1.02-1.59,1.02-2.67v-.6h-2.73Z"/>
  <path d="M386.67,457.49h5.25v4.29h-5.25v-4.29ZM386.67,463.88h5.25v16.41h-5.25v-16.41Z"/>
  <path d="M413.46,470.3v9.99h-5.28v-7.65c0-1.41-.03-2.37-.09-2.91s-.18-.93-.33-1.2c-.21-.33-.48-.6-.84-.78-.36-.18-.78-.3-1.2-.3-1.11,0-1.98.42-2.58,1.26-.63.84-.93,2.01-.93,3.51v8.07h-5.25v-16.41h5.25v2.4c.78-.96,1.59-1.65,2.49-2.1s1.89-.69,2.97-.69c1.89,0,3.33.6,4.32,1.74.96,1.17,1.47,2.85,1.47,5.07Z"/>
  <path d="M418.32,457.49h5.25v4.29h-5.25v-4.29ZM418.32,463.88h5.25v16.41h-5.25v-16.41Z"/>
  <path d="M445.11,470.3v9.99h-5.28v-7.65c0-1.41-.03-2.37-.09-2.91s-.18-.93-.33-1.2c-.21-.33-.48-.6-.84-.78-.36-.18-.78-.3-1.2-.3-1.11,0-1.98.42-2.58,1.26-.63.84-.93,2.01-.93,3.51v8.07h-5.25v-16.41h5.25v2.4c.78-.96,1.59-1.65,2.49-2.1.9-.45,1.89-.69,2.97-.69,1.89,0,3.33.6,4.32,1.74.96,1.17,1.47,2.85,1.47,5.07Z"/>
  <path d="M457.68,467.3c-1.08,0-1.95.42-2.55,1.2-.6.81-.9,1.95-.9,3.39s.27,2.64.87,3.42c.6.78,1.44,1.17,2.58,1.17,1.08,0,1.95-.39,2.55-1.2.6-.78.9-1.92.9-3.39s-.3-2.58-.9-3.39c-.6-.78-1.47-1.2-2.55-1.2ZM461.13,477.5c-.72.96-1.53,1.68-2.4,2.13s-1.86.66-3,.66c-2.01,0-3.66-.78-4.98-2.37-1.32-1.56-1.95-3.57-1.95-6.03s.63-4.44,1.95-6c1.32-1.56,2.97-2.37,4.98-2.37,1.14,0,2.13.24,3,.69.87.45,1.68,1.14,2.4,2.1v-2.43h5.28v14.76c0,2.61-.84,4.62-2.52,6-1.68,1.38-4.08,2.1-7.23,2.1-1.02,0-2.01-.09-2.97-.24-.96-.18-1.92-.42-2.88-.72v-4.08c.9.51,1.8.9,2.7,1.17.87.24,1.74.39,2.64.39,1.71,0,2.97-.39,3.78-1.14.78-.75,1.2-1.89,1.2-3.48v-1.14Z"/>
  <polygon points="482.13 458.42 497.34 458.42 497.34 462.68 487.77 462.68 487.77 466.76 496.77 466.76 496.77 471.02 487.77 471.02 487.77 480.29 482.13 480.29 482.13 458.42"/>
  <polygon points="502.62 458.42 508.26 458.42 508.26 476.03 518.16 476.03 518.16 480.29 502.62 480.29 502.62 458.42"/>
  <path d="M530.66,458.03c3.51,0,6.27,1.02,8.25,3.03,1.98,2.01,3,4.77,3,8.31s-1.02,6.33-3,8.31c-1.98,2.01-4.74,3-8.25,3s-6.27-.99-8.25-3c-2.01-1.98-3-4.77-3-8.31s.99-6.3,3-8.31c1.98-2.01,4.74-3.03,8.25-3.03ZM530.66,462.11c-1.74,0-3.06.66-4.02,1.92-.96,1.26-1.41,3.06-1.41,5.34s.45,4.11,1.41,5.37c.96,1.26,2.28,1.89,4.02,1.89s3.03-.63,3.99-1.89c.96-1.26,1.44-3.06,1.44-5.37s-.48-4.08-1.44-5.34c-.96-1.26-2.28-1.92-3.99-1.92Z"/>
  <path d="M551.81,462.5v6.12h3.12c1.08,0,1.92-.24,2.52-.78.6-.54.9-1.29.9-2.28s-.3-1.71-.9-2.25c-.6-.54-1.44-.81-2.52-.81h-3.12ZM546.17,458.42h9.36c2.76,0,4.89.63,6.39,1.86,1.5,1.26,2.25,3,2.25,5.28s-.75,4.08-2.25,5.31c-1.5,1.23-3.63,1.83-6.39,1.83h-3.72v7.59h-5.64v-21.87Z"/>
  <path d="M580.21,464.39v3.99c-1.14-.45-2.22-.81-3.24-1.05-1.05-.24-2.04-.36-2.97-.36-1.02,0-1.74.15-2.22.39-.48.24-.72.63-.72,1.14,0,.42.18.75.54.96.36.24,1.02.39,1.98.51l.93.12c2.67.36,4.47.9,5.4,1.68.93.78,1.41,2.01,1.41,3.69s-.66,3.06-1.95,3.93c-1.29.87-3.21,1.29-5.76,1.29-1.08,0-2.22-.09-3.36-.24-1.17-.15-2.37-.39-3.57-.75v-3.99c1.02.54,2.1.93,3.21,1.17,1.08.24,2.22.36,3.36.36,1.02,0,1.77-.12,2.31-.42.51-.27.78-.69.78-1.26,0-.48-.18-.81-.54-1.05-.36-.24-1.08-.42-2.13-.54l-.93-.12c-2.34-.27-3.96-.81-4.89-1.62-.96-.78-1.41-1.98-1.41-3.6,0-1.74.57-3.03,1.77-3.87s3.03-1.26,5.49-1.26c.96,0,1.95.09,3.03.24,1.08.15,2.22.36,3.48.66Z"/>
  <g class="dv">
    <line class="ck" x1="93.23" y1="297.35" x2="821.48" y2="297.35"/>
  </g>
  <line class="cf" x1="93.23" y1="297.35" x2="89.73" y2="297.35"/>
  <polygon points="43.46 304.29 47.64 304.29 47.64 289.83 43.09 290.74 43.09 288.4 47.62 287.49 50.19 287.49 50.19 304.29 54.38 304.29 54.38 306.45 43.46 306.45 43.46 304.29"/>
  <path d="M65.04,287.15c2.11,0,3.72.86,4.86,2.52,1.12,1.69,1.69,4.13,1.69,7.31s-.57,5.64-1.69,7.31c-1.14,1.66-2.76,2.5-4.89,2.5s-3.74-.83-4.86-2.5-1.66-4.11-1.66-7.31.55-5.62,1.66-7.31c1.12-1.66,2.76-2.52,4.89-2.52ZM65.04,289.18c-1.33,0-2.31.65-2.99,1.95s-.99,3.25-.99,5.85.31,4.55.99,5.85,1.66,1.95,2.99,1.95,2.31-.65,2.99-1.95c.65-1.3.99-3.25.99-5.85s-.34-4.55-.99-5.85c-.68-1.3-1.66-1.95-2.99-1.95Z"/>
  <polygon points="75.82 294.98 78.75 294.98 78.75 284.86 75.57 285.5 75.57 283.86 78.73 283.22 80.53 283.22 80.53 294.98 83.46 294.98 83.46 296.49 75.82 296.49 75.82 294.98"/>
  <g class="dw">
    <line class="ck" x1="93.23" y1="398.42" x2="821.48" y2="398.42"/>
  </g>
  <line class="cg" x1="93.23" y1="398.42" x2="91.23" y2="398.42"/>
  <g class="dt">
    <line class="ck" x1="93.23" y1="371.84" x2="821.48" y2="371.84"/>
  </g>
  <line class="cg" x1="93.23" y1="371.84" x2="91.23" y2="371.84"/>
  <g class="ed">
    <line class="ck" x1="93.23" y1="349.36" x2="821.48" y2="349.36"/>
  </g>
  <line class="cg" x1="93.23" y1="349.36" x2="91.23" y2="349.36"/>
  <g class="ec">
    <line class="ck" x1="93.23" y1="329.89" x2="821.48" y2="329.89"/>
  </g>
  <line class="cg" x1="93.23" y1="329.89" x2="91.23" y2="329.89"/>
  <g class="du">
    <line class="ck" x1="93.23" y1="312.71" x2="821.48" y2="312.71"/>
  </g>
  <line class="cg" x1="93.23" y1="312.71" x2="91.23" y2="312.71"/>
  <g class="ek">
    <line class="ck" x1="93.23" y1="196.28" x2="821.48" y2="196.28"/>
  </g>
  <line class="cg" x1="93.23" y1="196.28" x2="91.23" y2="196.28"/>
  <g class="ds">
    <line class="ck" x1="93.23" y1="137.16" x2="821.48" y2="137.16"/>
  </g>
  <line class="cg" x1="93.23" y1="137.16" x2="91.23" y2="137.16"/>
  <g class="dx">
    <line class="ck" x1="93.23" y1="95.21" x2="821.48" y2="95.21"/>
  </g>
  <line class="cg" x1="93.23" y1="95.21" x2="91.23" y2="95.21"/>
  <g class="eq">
    <line class="ck" x1="93.23" y1="62.67" x2="821.48" y2="62.67"/>
  </g>
  <line class="cg" x1="93.23" y1="62.67" x2="91.23" y2="62.67"/>
  <polygon points="8.13 294.66 8.13 279.45 12.39 279.45 12.39 289.02 16.47 289.02 16.47 280.02 20.73 280.02 20.73 289.02 30 289.02 30 294.66 8.13 294.66"/>
  <rect x="8.13" y="268.53" width="21.87" height="5.64"/>
  <path d="M8.13,263.01v-5.94c0-3.3.24-5.79.72-7.41.48-1.62,1.26-3.03,2.4-4.2.99-1.02,2.13-1.77,3.42-2.28,1.29-.48,2.76-.75,4.38-.75s3.12.27,4.41.75c1.32.51,2.46,1.26,3.42,2.28,1.14,1.2,1.95,2.61,2.43,4.23.48,1.65.69,4.11.69,7.38v5.94H8.13ZM12.39,257.37h13.35v-2.01c0-2.28-.57-4.05-1.71-5.28-1.14-1.2-2.79-1.83-4.98-1.83s-3.81.63-4.95,1.83-1.71,2.97-1.71,5.28v2.01Z"/>
  <rect x="19.23" y="229.5" width="4.26" height="9.21"/>
  <path d="M8.13,224.7v-14.01h4.14v9.51h3.39c-.12-.42-.21-.84-.27-1.29-.06-.42-.09-.87-.09-1.35,0-2.67.69-4.74,2.01-6.24,1.32-1.47,3.18-2.22,5.55-2.22s4.23.81,5.55,2.43,1.98,3.87,1.98,6.72c0,1.26-.12,2.49-.36,3.69-.21,1.23-.57,2.43-1.05,3.63h-4.44c.69-1.2,1.2-2.31,1.53-3.39.36-1.08.51-2.07.51-3.03,0-1.35-.33-2.43-.99-3.21s-1.59-1.2-2.73-1.2-2.04.42-2.7,1.2-1.02,1.86-1.02,3.21c0,.84.12,1.71.33,2.61s.54,1.89.96,2.94h-12.3Z"/>
  <path d="M19.08,187.56c3.63,0,6.42.78,8.37,2.34,1.98,1.56,2.94,3.78,2.94,6.66s-.96,5.1-2.94,6.66c-1.95,1.56-4.74,2.34-8.37,2.34s-6.39-.78-8.37-2.34-2.97-3.78-2.97-6.66.99-5.1,2.97-6.66,4.77-2.34,8.37-2.34ZM19.05,193.2c-2.73,0-4.65.27-5.79.78-1.11.51-1.68,1.38-1.68,2.58s.57,2.07,1.68,2.58c1.14.54,3.06.78,5.79.78s4.71-.24,5.85-.78c1.14-.51,1.68-1.38,1.68-2.58s-.54-2.04-1.68-2.58c-1.14-.51-3.09-.78-5.85-.78Z"/>
  <polygon points="8.13 183.36 8.13 177.72 16.11 177.72 8.13 169.59 8.13 163.05 18.48 173.58 30 161.97 30 169.02 21.39 177.72 30 177.72 30 183.36 8.13 183.36"/>
  <g class="et">
    <polyline class="ch" points="129.44 61.83 180.41 195.7 210.22 247.27 231.38 276.39 247.79 295.29 261.19 312.55 272.53 324.88 282.35 335.35"/>
    <g class="es">
      <path class="cp" d="M129.44,70.83c2.39,0,4.68-.95,6.36-2.64,1.69-1.69,2.64-3.98,2.64-6.36s-.95-4.68-2.64-6.36c-1.69-1.69-3.98-2.64-6.36-2.64s-4.68.95-6.36,2.64-2.64,3.98-2.64,6.36.95,4.68,2.64,6.36,3.98,2.64,6.36,2.64Z"/>
      <path class="ci" d="M129.44,70.83c2.39,0,4.68-.95,6.36-2.64,1.69-1.69,2.64-3.98,2.64-6.36s-.95-4.68-2.64-6.36c-1.69-1.69-3.98-2.64-6.36-2.64s-4.68.95-6.36,2.64-2.64,3.98-2.64,6.36.95,4.68,2.64,6.36,3.98,2.64,6.36,2.64Z"/>
    </g>
    <g class="fb">
      <path class="cp" d="M180.41,204.7c2.39,0,4.68-.95,6.36-2.64,1.69-1.69,2.64-3.98,2.64-6.36s-.95-4.68-2.64-6.36c-1.69-1.69-3.98-2.64-6.36-2.64s-4.68.95-6.36,2.64c-1.69,1.69-2.64,3.98-2.64,6.36s.95,4.68,2.64,6.36c1.69,1.69,3.98,2.64,6.36,2.64Z"/>
      <path class="ci" d="M180.41,204.7c2.39,0,4.68-.95,6.36-2.64,1.69-1.69,2.64-3.98,2.64-6.36s-.95-4.68-2.64-6.36c-1.69-1.69-3.98-2.64-6.36-2.64s-4.68.95-6.36,2.64c-1.69,1.69-2.64,3.98-2.64,6.36s.95,4.68,2.64,6.36c1.69,1.69,3.98,2.64,6.36,2.64Z"/>
    </g>
    <g class="eu">
      <path class="cp" d="M210.22,256.27c2.39,0,4.68-.95,6.36-2.64,1.69-1.69,2.64-3.98,2.64-6.36s-.95-4.68-2.64-6.36c-1.69-1.69-3.98-2.64-6.36-2.64s-4.68.95-6.36,2.64c-1.69,1.69-2.64,3.98-2.64,6.36s.95,4.68,2.64,6.36c1.69,1.69,3.98,2.64,6.36,2.64Z"/>
      <path class="ci" d="M210.22,256.27c2.39,0,4.68-.95,6.36-2.64,1.69-1.69,2.64-3.98,2.64-6.36s-.95-4.68-2.64-6.36c-1.69-1.69-3.98-2.64-6.36-2.64s-4.68.95-6.36,2.64c-1.69,1.69-2.64,3.98-2.64,6.36s.95,4.68,2.64,6.36c1.69,1.69,3.98,2.64,6.36,2.64Z"/>
    </g>
    <g class="fk">
      <path class="cp" d="M231.38,285.39c2.39,0,4.68-.95,6.36-2.64,1.69-1.69,2.64-3.98,2.64-6.36s-.95-4.68-2.64-6.36c-1.69-1.69-3.98-2.64-6.36-2.64s-4.68.95-6.36,2.64c-1.69,1.69-2.64,3.98-2.64,6.36s.95,4.68,2.64,6.36c1.69,1.69,3.98,2.64,6.36,2.64Z"/>
      <path class="ci" d="M231.38,285.39c2.39,0,4.68-.95,6.36-2.64,1.69-1.69,2.64-3.98,2.64-6.36s-.95-4.68-2.64-6.36c-1.69-1.69-3.98-2.64-6.36-2.64s-4.68.95-6.36,2.64c-1.69,1.69-2.64,3.98-2.64,6.36s.95,4.68,2.64,6.36c1.69,1.69,3.98,2.64,6.36,2.64Z"/>
    </g>
    <g class="fj">
      <path class="cp" d="M247.79,304.29c2.39,0,4.68-.95,6.36-2.64,1.69-1.69,2.64-3.98,2.64-6.36s-.95-4.68-2.64-6.36c-1.69-1.69-3.98-2.64-6.36-2.64s-4.68.95-6.36,2.64c-1.69,1.69-2.64,3.98-2.64,6.36s.95,4.68,2.64,6.36c1.69,1.69,3.98,2.64,6.36,2.64Z"/>
      <path class="ci" d="M247.79,304.29c2.39,0,4.68-.95,6.36-2.64,1.69-1.69,2.64-3.98,2.64-6.36s-.95-4.68-2.64-6.36c-1.69-1.69-3.98-2.64-6.36-2.64s-4.68.95-6.36,2.64c-1.69,1.69-2.64,3.98-2.64,6.36s.95,4.68,2.64,6.36c1.69,1.69,3.98,2.64,6.36,2.64Z"/>
    </g>
    <g class="er">
      <path class="cp" d="M261.19,321.55c2.39,0,4.68-.95,6.36-2.64,1.69-1.69,2.64-3.98,2.64-6.36s-.95-4.68-2.64-6.36c-1.69-1.69-3.98-2.64-6.36-2.64s-4.68.95-6.36,2.64c-1.69,1.69-2.64,3.98-2.64,6.36s.95,4.68,2.64,6.36c1.69,1.69,3.98,2.64,6.36,2.64Z"/>
      <path class="ci" d="M261.19,321.55c2.39,0,4.68-.95,6.36-2.64,1.69-1.69,2.64-3.98,2.64-6.36s-.95-4.68-2.64-6.36c-1.69-1.69-3.98-2.64-6.36-2.64s-4.68.95-6.36,2.64c-1.69,1.69-2.64,3.98-2.64,6.36s.95,4.68,2.64,6.36c1.69,1.69,3.98,2.64,6.36,2.64Z"/>
    </g>
    <g class="fl">
      <path class="cp" d="M272.53,333.88c2.39,0,4.68-.95,6.36-2.64,1.69-1.69,2.64-3.98,2.64-6.36s-.95-4.68-2.64-6.36c-1.69-1.69-3.98-2.64-6.36-2.64s-4.68.95-6.36,2.64c-1.69,1.69-2.64,3.98-2.64,6.36s.95,4.68,2.64,6.36c1.69,1.69,3.98,2.64,6.36,2.64Z"/>
      <path class="ci" d="M272.53,333.88c2.39,0,4.68-.95,6.36-2.64,1.69-1.69,2.64-3.98,2.64-6.36s-.95-4.68-2.64-6.36c-1.69-1.69-3.98-2.64-6.36-2.64s-4.68.95-6.36,2.64c-1.69,1.69-2.64,3.98-2.64,6.36s.95,4.68,2.64,6.36c1.69,1.69,3.98,2.64,6.36,2.64Z"/>
    </g>
    <g class="fo">
      <path class="cp" d="M282.35,344.35c2.39,0,4.68-.95,6.36-2.64,1.69-1.69,2.64-3.98,2.64-6.36s-.95-4.68-2.64-6.36c-1.69-1.69-3.98-2.64-6.36-2.64s-4.68.95-6.36,2.64c-1.69,1.69-2.64,3.98-2.64,6.36s.95,4.68,2.64,6.36c1.69,1.69,3.98,2.64,6.36,2.64Z"/>
      <path class="ci" d="M282.35,344.35c2.39,0,4.68-.95,6.36-2.64,1.69-1.69,2.64-3.98,2.64-6.36s-.95-4.68-2.64-6.36c-1.69-1.69-3.98-2.64-6.36-2.64s-4.68.95-6.36,2.64c-1.69,1.69-2.64,3.98-2.64,6.36s.95,4.68,2.64,6.36c1.69,1.69,3.98,2.64,6.36,2.64Z"/>
    </g>
  </g>
  <g class="fn">
    <polyline class="cd" points="315.57 293.06 366.54 360.65 396.36 376.58 417.51 381.28 433.92 382.64 447.33 384.55 458.66 387.93 468.48 385.87"/>
    <g class="ew">
      <path class="cn" d="M315.57,302.06c2.39,0,4.68-.95,6.36-2.64,1.69-1.69,2.64-3.98,2.64-6.36s-.95-4.68-2.64-6.36c-1.69-1.69-3.98-2.64-6.36-2.64s-4.68.95-6.36,2.64c-1.69,1.69-2.64,3.98-2.64,6.36s.95,4.68,2.64,6.36c1.69,1.69,3.98,2.64,6.36,2.64Z"/>
      <path class="ci" d="M315.57,302.06c2.39,0,4.68-.95,6.36-2.64,1.69-1.69,2.64-3.98,2.64-6.36s-.95-4.68-2.64-6.36c-1.69-1.69-3.98-2.64-6.36-2.64s-4.68.95-6.36,2.64c-1.69,1.69-2.64,3.98-2.64,6.36s.95,4.68,2.64,6.36c1.69,1.69,3.98,2.64,6.36,2.64Z"/>
    </g>
    <g class="fp">
      <path class="cn" d="M366.54,369.65c2.39,0,4.68-.95,6.36-2.64,1.69-1.69,2.64-3.98,2.64-6.36s-.95-4.68-2.64-6.36c-1.69-1.69-3.98-2.64-6.36-2.64s-4.68.95-6.36,2.64c-1.69,1.69-2.64,3.98-2.64,6.36s.95,4.68,2.64,6.36c1.69,1.69,3.98,2.64,6.36,2.64Z"/>
      <path class="ci" d="M366.54,369.65c2.39,0,4.68-.95,6.36-2.64,1.69-1.69,2.64-3.98,2.64-6.36s-.95-4.68-2.64-6.36c-1.69-1.69-3.98-2.64-6.36-2.64s-4.68.95-6.36,2.64c-1.69,1.69-2.64,3.98-2.64,6.36s.95,4.68,2.64,6.36c1.69,1.69,3.98,2.64,6.36,2.64Z"/>
    </g>
    <g class="fd">
      <path class="cn" d="M396.36,385.58c2.39,0,4.68-.95,6.36-2.64s2.64-3.98,2.64-6.36-.95-4.68-2.64-6.36-3.98-2.64-6.36-2.64-4.68.95-6.36,2.64-2.64,3.98-2.64,6.36.95,4.68,2.64,6.36,3.98,2.64,6.36,2.64Z"/>
      <path class="ci" d="M396.36,385.58c2.39,0,4.68-.95,6.36-2.64s2.64-3.98,2.64-6.36-.95-4.68-2.64-6.36-3.98-2.64-6.36-2.64-4.68.95-6.36,2.64-2.64,3.98-2.64,6.36.95,4.68,2.64,6.36,3.98,2.64,6.36,2.64Z"/>
    </g>
    <g class="fc">
      <path class="cn" d="M417.51,390.28c2.39,0,4.68-.95,6.36-2.64s2.64-3.98,2.64-6.36-.95-4.68-2.64-6.36-3.98-2.64-6.36-2.64-4.68.95-6.36,2.64-2.64,3.98-2.64,6.36.95,4.68,2.64,6.36,3.98,2.64,6.36,2.64Z"/>
      <path class="ci" d="M417.51,390.28c2.39,0,4.68-.95,6.36-2.64s2.64-3.98,2.64-6.36-.95-4.68-2.64-6.36-3.98-2.64-6.36-2.64-4.68.95-6.36,2.64-2.64,3.98-2.64,6.36.95,4.68,2.64,6.36,3.98,2.64,6.36,2.64Z"/>
    </g>
    <g class="fm">
      <path class="cn" d="M433.92,391.64c2.39,0,4.68-.95,6.36-2.64s2.64-3.98,2.64-6.36-.95-4.68-2.64-6.36-3.98-2.64-6.36-2.64-4.68.95-6.36,2.64-2.64,3.98-2.64,6.36.95,4.68,2.64,6.36,3.98,2.64,6.36,2.64Z"/>
      <path class="ci" d="M433.92,391.64c2.39,0,4.68-.95,6.36-2.64s2.64-3.98,2.64-6.36-.95-4.68-2.64-6.36-3.98-2.64-6.36-2.64-4.68.95-6.36,2.64-2.64,3.98-2.64,6.36.95,4.68,2.64,6.36,3.98,2.64,6.36,2.64Z"/>
    </g>
    <g class="fe">
      <path class="cn" d="M447.33,393.55c2.39,0,4.68-.95,6.36-2.64s2.64-3.98,2.64-6.36-.95-4.68-2.64-6.36-3.98-2.64-6.36-2.64-4.68.95-6.36,2.64-2.64,3.98-2.64,6.36.95,4.68,2.64,6.36,3.98,2.64,6.36,2.64Z"/>
      <path class="ci" d="M447.33,393.55c2.39,0,4.68-.95,6.36-2.64s2.64-3.98,2.64-6.36-.95-4.68-2.64-6.36-3.98-2.64-6.36-2.64-4.68.95-6.36,2.64-2.64,3.98-2.64,6.36.95,4.68,2.64,6.36,3.98,2.64,6.36,2.64Z"/>
    </g>
    <g class="fh">
      <path class="cn" d="M458.66,396.93c2.39,0,4.68-.95,6.36-2.64s2.64-3.98,2.64-6.36-.95-4.68-2.64-6.36-3.98-2.64-6.36-2.64-4.68.95-6.36,2.64-2.64,3.98-2.64,6.36.95,4.68,2.64,6.36,3.98,2.64,6.36,2.64Z"/>
      <path class="ci" d="M458.66,396.93c2.39,0,4.68-.95,6.36-2.64s2.64-3.98,2.64-6.36-.95-4.68-2.64-6.36-3.98-2.64-6.36-2.64-4.68.95-6.36,2.64-2.64,3.98-2.64,6.36.95,4.68,2.64,6.36,3.98,2.64,6.36,2.64Z"/>
    </g>
    <g class="fg">
      <path class="cn" d="M468.48,394.87c2.39,0,4.68-.95,6.36-2.64s2.64-3.98,2.64-6.36-.95-4.68-2.64-6.36-3.98-2.64-6.36-2.64-4.68.95-6.36,2.64-2.64,3.98-2.64,6.36.95,4.68,2.64,6.36,3.98,2.64,6.36,2.64Z"/>
      <path class="ci" d="M468.48,394.87c2.39,0,4.68-.95,6.36-2.64s2.64-3.98,2.64-6.36-.95-4.68-2.64-6.36-3.98-2.64-6.36-2.64-4.68.95-6.36,2.64-2.64,3.98-2.64,6.36.95,4.68,2.64,6.36,3.98,2.64,6.36,2.64Z"/>
    </g>
  </g>
  <g class="ev">
    <polyline class="ce" points="606.74 355.48 657.71 382.3 687.52 383.14 708.68 389.16 725.09 390.05 759.65 398.5 776.06 396.29"/>
    <g class="fi">
      <path class="cm" d="M606.74,364.48c2.39,0,4.68-.95,6.36-2.64,1.69-1.69,2.64-3.98,2.64-6.36s-.95-4.68-2.64-6.36c-1.69-1.69-3.98-2.64-6.36-2.64s-4.68.95-6.36,2.64c-1.69,1.69-2.64,3.98-2.64,6.36s.95,4.68,2.64,6.36c1.69,1.69,3.98,2.64,6.36,2.64Z"/>
      <path class="ci" d="M606.74,364.48c2.39,0,4.68-.95,6.36-2.64,1.69-1.69,2.64-3.98,2.64-6.36s-.95-4.68-2.64-6.36c-1.69-1.69-3.98-2.64-6.36-2.64s-4.68.95-6.36,2.64c-1.69,1.69-2.64,3.98-2.64,6.36s.95,4.68,2.64,6.36c1.69,1.69,3.98,2.64,6.36,2.64Z"/>
    </g>
    <g class="ey">
      <path class="cm" d="M657.71,391.3c2.39,0,4.68-.95,6.36-2.64s2.64-3.98,2.64-6.36-.95-4.68-2.64-6.36-3.98-2.64-6.36-2.64-4.68.95-6.36,2.64-2.64,3.98-2.64,6.36.95,4.68,2.64,6.36,3.98,2.64,6.36,2.64Z"/>
      <path class="ci" d="M657.71,391.3c2.39,0,4.68-.95,6.36-2.64s2.64-3.98,2.64-6.36-.95-4.68-2.64-6.36-3.98-2.64-6.36-2.64-4.68.95-6.36,2.64-2.64,3.98-2.64,6.36.95,4.68,2.64,6.36,3.98,2.64,6.36,2.64Z"/>
    </g>
    <g class="ex">
      <path class="cm" d="M687.52,392.14c2.39,0,4.68-.95,6.36-2.64s2.64-3.98,2.64-6.36-.95-4.68-2.64-6.36-3.98-2.64-6.36-2.64-4.68.95-6.36,2.64-2.64,3.98-2.64,6.36.95,4.68,2.64,6.36,3.98,2.64,6.36,2.64Z"/>
      <path class="ci" d="M687.52,392.14c2.39,0,4.68-.95,6.36-2.64s2.64-3.98,2.64-6.36-.95-4.68-2.64-6.36-3.98-2.64-6.36-2.64-4.68.95-6.36,2.64-2.64,3.98-2.64,6.36.95,4.68,2.64,6.36,3.98,2.64,6.36,2.64Z"/>
    </g>
    <g class="ff">
      <path class="cm" d="M708.68,398.16c2.39,0,4.68-.95,6.36-2.64s2.64-3.98,2.64-6.36-.95-4.68-2.64-6.36-3.98-2.64-6.36-2.64-4.68.95-6.36,2.64-2.64,3.98-2.64,6.36.95,4.68,2.64,6.36,3.98,2.64,6.36,2.64Z"/>
      <path class="ci" d="M708.68,398.16c2.39,0,4.68-.95,6.36-2.64s2.64-3.98,2.64-6.36-.95-4.68-2.64-6.36-3.98-2.64-6.36-2.64-4.68.95-6.36,2.64-2.64,3.98-2.64,6.36.95,4.68,2.64,6.36,3.98,2.64,6.36,2.64Z"/>
    </g>
    <g class="ez">
      <path class="cm" d="M725.09,399.05c2.39,0,4.68-.95,6.36-2.64s2.64-3.98,2.64-6.36-.95-4.68-2.64-6.36-3.98-2.64-6.36-2.64-4.68.95-6.36,2.64-2.64,3.98-2.64,6.36.95,4.68,2.64,6.36,3.98,2.64,6.36,2.64Z"/>
      <path class="ci" d="M725.09,399.05c2.39,0,4.68-.95,6.36-2.64s2.64-3.98,2.64-6.36-.95-4.68-2.64-6.36-3.98-2.64-6.36-2.64-4.68.95-6.36,2.64-2.64,3.98-2.64,6.36.95,4.68,2.64,6.36,3.98,2.64,6.36,2.64Z"/>
    </g>
    <g class="fa">
      <path class="cm" d="M759.65,407.5c2.39,0,4.68-.95,6.36-2.64s2.64-3.98,2.64-6.36-.95-4.68-2.64-6.36-3.98-2.64-6.36-2.64-4.68.95-6.36,2.64-2.64,3.98-2.64,6.36.95,4.68,2.64,6.36,3.98,2.64,6.36,2.64Z"/>
      <path class="ci" d="M759.65,407.5c2.39,0,4.68-.95,6.36-2.64s2.64-3.98,2.64-6.36-.95-4.68-2.64-6.36-3.98-2.64-6.36-2.64-4.68.95-6.36,2.64-2.64,3.98-2.64,6.36.95,4.68,2.64,6.36,3.98,2.64,6.36,2.64Z"/>
    </g>
    <g class="ep">
      <path class="cm" d="M776.06,405.29c2.39,0,4.68-.95,6.36-2.64s2.64-3.98,2.64-6.36-.95-4.68-2.64-6.36-3.98-2.64-6.36-2.64-4.68.95-6.36,2.64-2.64,3.98-2.64,6.36.95,4.68,2.64,6.36,3.98,2.64,6.36,2.64Z"/>
      <path class="ci" d="M776.06,405.29c2.39,0,4.68-.95,6.36-2.64s2.64-3.98,2.64-6.36-.95-4.68-2.64-6.36-3.98-2.64-6.36-2.64-4.68.95-6.36,2.64-2.64,3.98-2.64,6.36.95,4.68,2.64,6.36,3.98,2.64,6.36,2.64Z"/>
    </g>
  </g>
  <line class="cj" x1="93.23" y1="415.33" x2="93.23" y2="45"/>
  <line class="cj" x1="821.48" y1="415.33" x2="821.48" y2="45"/>
  <line class="cj" x1="93.23" y1="415.33" x2="821.48" y2="415.33"/>
  <line class="cj" x1="93.23" y1="45" x2="821.48" y2="45"/>
  <path d="M359.41,8.82v4.62c-1.2-.54-2.37-.93-3.51-1.2-1.14-.27-2.22-.42-3.24-.42-1.35,0-2.34.21-3,.57-.66.36-.96.93-.96,1.71,0,.6.21,1.08.66,1.38.42.33,1.23.6,2.37.84l2.4.48c2.4.48,4.14,1.23,5.16,2.22,1.02,1.02,1.56,2.43,1.56,4.26,0,2.4-.72,4.2-2.16,5.37-1.44,1.17-3.6,1.74-6.54,1.74-1.38,0-2.79-.15-4.17-.39-1.41-.24-2.82-.6-4.2-1.14v-4.77c1.38.75,2.73,1.32,4.05,1.68,1.29.39,2.55.57,3.78.57s2.16-.18,2.82-.6c.66-.42.99-.99.99-1.77,0-.66-.24-1.2-.69-1.56-.45-.36-1.32-.72-2.64-1.02l-2.19-.48c-2.19-.48-3.78-1.23-4.8-2.25s-1.5-2.4-1.5-4.14c0-2.16.69-3.84,2.1-5.01,1.38-1.17,3.42-1.77,6.06-1.77,1.2,0,2.43.09,3.69.27,1.26.18,2.58.45,3.96.81Z"/>
  <path d="M378.82,14.1v4.29c-.72-.48-1.44-.84-2.16-1.08s-1.47-.36-2.22-.36c-1.47,0-2.61.45-3.42,1.29-.84.84-1.23,2.04-1.23,3.57s.39,2.76,1.23,3.6c.81.84,1.95,1.26,3.42,1.26.81,0,1.59-.12,2.34-.36.72-.24,1.41-.6,2.04-1.08v4.29c-.84.3-1.68.51-2.52.66-.84.12-1.68.21-2.52.21-2.97,0-5.28-.75-6.96-2.25s-2.49-3.63-2.49-6.33.81-4.8,2.49-6.33c1.68-1.5,3.99-2.28,6.96-2.28.84,0,1.68.09,2.52.24s1.68.36,2.52.66Z"/>
  <path d="M398.71,20.64v9.36h-5.28v-2.43c-.72,1.02-1.5,1.74-2.37,2.16-.9.42-1.95.66-3.21.66-1.71,0-3.09-.48-4.14-1.47-1.08-.96-1.59-2.25-1.59-3.84,0-1.92.66-3.33,1.98-4.23,1.32-.9,3.39-1.35,6.24-1.35h3.09v-.42c0-.81-.33-1.41-.99-1.8-.66-.39-1.68-.6-3.06-.6-1.14,0-2.19.12-3.15.36-.96.24-1.86.57-2.67.99v-3.99c1.11-.27,2.22-.48,3.36-.63,1.14-.12,2.28-.21,3.42-.21,2.94,0,5.07.6,6.39,1.77s1.98,3.06,1.98,5.67ZM390.7,22.62c-1.11,0-1.95.21-2.49.57-.54.36-.81.9-.81,1.62,0,.66.21,1.2.66,1.56.45.39,1.08.57,1.86.57.99,0,1.83-.33,2.49-1.05.66-.72,1.02-1.59,1.02-2.67v-.6h-2.73Z"/>
  <rect x="403.6" y="7.2" width="5.25" height="22.8"/>
  <path d="M413.89,7.2h5.25v4.29h-5.25v-4.29ZM413.89,13.59h5.25v16.41h-5.25V13.59Z"/>
  <path d="M440.68,20.01v9.99h-5.28v-7.65c0-1.41-.03-2.37-.09-2.91s-.18-.93-.33-1.2c-.21-.33-.48-.6-.84-.78-.36-.18-.78-.3-1.2-.3-1.11,0-1.98.42-2.58,1.26-.63.84-.93,2.01-.93,3.51v8.07h-5.25V13.59h5.25v2.4c.78-.96,1.59-1.65,2.49-2.1.9-.45,1.89-.69,2.97-.69,1.89,0,3.33.6,4.32,1.74.96,1.17,1.47,2.85,1.47,5.07Z"/>
  <path d="M453.25,17.01c-1.08,0-1.95.42-2.55,1.2-.6.81-.9,1.95-.9,3.39s.27,2.64.87,3.42,1.44,1.17,2.58,1.17c1.08,0,1.95-.39,2.55-1.2.6-.78.9-1.92.9-3.39s-.3-2.58-.9-3.39c-.6-.78-1.47-1.2-2.55-1.2ZM456.7,27.21c-.72.96-1.53,1.68-2.4,2.13-.87.45-1.86.66-3,.66-2.01,0-3.66-.78-4.98-2.37-1.32-1.56-1.95-3.57-1.95-6.03s.63-4.44,1.95-6c1.32-1.56,2.97-2.37,4.98-2.37,1.14,0,2.13.24,3,.69.87.45,1.68,1.14,2.4,2.1v-2.43h5.28v14.76c0,2.61-.84,4.62-2.52,6s-4.08,2.1-7.23,2.1c-1.02,0-2.01-.09-2.97-.24-.96-.18-1.92-.42-2.88-.72v-4.08c.9.51,1.8.9,2.7,1.17.87.24,1.74.39,2.64.39,1.71,0,2.97-.39,3.78-1.14.78-.75,1.2-1.89,1.2-3.48v-1.14Z"/>
  <path d="M492.91,8.82v4.62c-1.2-.54-2.37-.93-3.51-1.2-1.14-.27-2.22-.42-3.24-.42-1.35,0-2.34.21-3,.57-.66.36-.96.93-.96,1.71,0,.6.21,1.08.66,1.38.42.33,1.23.6,2.37.84l2.4.48c2.4.48,4.14,1.23,5.16,2.22,1.02,1.02,1.56,2.43,1.56,4.26,0,2.4-.72,4.2-2.16,5.37-1.44,1.17-3.6,1.74-6.54,1.74-1.38,0-2.79-.15-4.17-.39-1.41-.24-2.82-.6-4.2-1.14v-4.77c1.38.75,2.73,1.32,4.05,1.68,1.29.39,2.55.57,3.78.57s2.16-.18,2.82-.6c.66-.42.99-.99.99-1.77,0-.66-.24-1.2-.69-1.56-.45-.36-1.32-.72-2.64-1.02l-2.19-.48c-2.19-.48-3.78-1.23-4.8-2.25s-1.5-2.4-1.5-4.14c0-2.16.69-3.84,2.1-5.01,1.38-1.17,3.42-1.77,6.06-1.77,1.2,0,2.43.09,3.69.27,1.26.18,2.58.45,3.96.81Z"/>
  <path d="M504.79,8.94v4.65h5.4v3.75h-5.4v6.96c0,.78.15,1.29.45,1.56.3.27.9.39,1.8.39h2.7v3.75h-4.5c-2.07,0-3.54-.42-4.41-1.29-.87-.84-1.29-2.31-1.29-4.41v-6.96h-2.61v-3.75h2.61v-4.65h5.25Z"/>
  <path d="M513.22,23.61v-10.02h5.28v1.65c0,.9-.03,2.01-.03,3.36v2.67c0,1.32.03,2.28.09,2.85.06.6.18,1.02.36,1.26.21.36.48.63.84.81.33.18.72.27,1.2.27,1.08,0,1.95-.42,2.58-1.26.6-.84.93-2.01.93-3.51v-8.1h5.25v16.41h-5.25v-2.37c-.78.96-1.62,1.68-2.52,2.1-.9.42-1.86.66-2.91.66-1.92,0-3.36-.57-4.35-1.71-.99-1.14-1.47-2.85-1.47-5.07Z"/>
  <path d="M542.47,26.61c1.11,0,1.95-.39,2.55-1.23.6-.81.9-2.01.9-3.57s-.3-2.73-.9-3.57c-.6-.81-1.44-1.23-2.55-1.23s-1.98.42-2.58,1.23c-.6.84-.87,2.01-.87,3.57s.27,2.76.87,3.57c.6.84,1.44,1.23,2.58,1.23ZM545.92,15.99V7.2h5.28v22.8h-5.28v-2.37c-.72.96-1.53,1.68-2.4,2.1-.87.42-1.86.66-3,.66-2.04,0-3.69-.78-4.98-2.37-1.32-1.59-1.95-3.66-1.95-6.18s.63-4.59,1.95-6.21c1.29-1.62,2.94-2.43,4.98-2.43,1.14,0,2.13.24,3,.69.87.45,1.68,1.14,2.4,2.1Z"/>
  <path d="M554.08,13.59h5.25l4.41,11.13,3.75-11.13h5.25l-6.9,17.94c-.72,1.8-1.53,3.09-2.43,3.81-.93.72-2.16,1.11-3.66,1.11h-3.03v-3.45h1.65c.87,0,1.5-.15,1.92-.42.42-.3.72-.81.96-1.53l.15-.45-7.32-17.01Z"/>
  <g>
    <rect class="cl" x="480.32" y="60" width="326.16" height="142.78" rx="6" ry="6"/>
    <rect class="cc" x="480.32" y="60" width="326.16" height="142.78" rx="6" ry="6"/>
  </g>
  <polyline class="ch" points="492.32 84.29 522.32 84.29 552.32 84.29"/>
  <path class="cp" d="M522.32,93.29c2.39,0,4.68-.95,6.36-2.64s2.64-3.98,2.64-6.36-.95-4.68-2.64-6.36-3.98-2.64-6.36-2.64-4.68.95-6.36,2.64-2.64,3.98-2.64,6.36.95,4.68,2.64,6.36,3.98,2.64,6.36,2.64Z"/>
  <path class="ci" d="M522.32,93.29c2.39,0,4.68-.95,6.36-2.64s2.64-3.98,2.64-6.36-.95-4.68-2.64-6.36-3.98-2.64-6.36-2.64-4.68.95-6.36,2.64-2.64,3.98-2.64,6.36.95,4.68,2.64,6.36,3.98,2.64,6.36,2.64Z"/>
  <path d="M579.26,72.92h6.09c4.23,0,7.35.9,9.33,2.64,1.98,1.77,2.97,4.53,2.97,8.28s-1.02,6.54-3,8.31c-1.98,1.77-5.1,2.64-9.3,2.64h-6.09v-21.87ZM582.23,75.35v17.01h3.57c3,0,5.22-.66,6.63-2.04,1.38-1.38,2.1-3.54,2.1-6.48s-.72-5.07-2.1-6.45c-1.41-1.35-3.63-2.04-6.63-2.04h-3.57Z"/>
  <path d="M602.24,71.99h2.7v3.42h-2.7v-3.42ZM602.24,78.38h2.7v16.41h-2.7v-16.41Z"/>
  <polygon points="607.7 72.92 626.18 72.92 626.18 75.41 618.41 75.41 618.41 94.79 615.44 94.79 615.44 75.41 607.7 75.41 607.7 72.92"/>
  <rect x="625.82" y="99.74" width="15.57" height="2.1"/>
  <path d="M644.03,72.92h7.56c2.25,0,3.99.48,5.22,1.41,1.2.96,1.83,2.28,1.83,3.99,0,1.35-.33,2.43-.96,3.21s-1.53,1.29-2.73,1.47c1.44.33,2.58.99,3.39,1.98.78.99,1.2,2.22,1.2,3.69,0,1.98-.69,3.48-2.01,4.53-1.32,1.08-3.21,1.59-5.64,1.59h-7.86v-21.87ZM647,75.35v6.6h4.38c1.44,0,2.49-.27,3.21-.81s1.08-1.35,1.08-2.49c0-1.08-.36-1.92-1.08-2.46s-1.77-.84-3.21-.84h-4.38ZM647,84.35v8.01h4.74c1.59,0,2.76-.33,3.54-.99.75-.66,1.14-1.65,1.14-3.03s-.39-2.34-1.14-3c-.78-.66-1.95-.99-3.54-.99h-4.74Z"/>
  <path d="M680.51,72.02c-1.32,2.28-2.28,4.5-2.91,6.69-.66,2.19-.96,4.41-.96,6.66s.3,4.5.96,6.69c.63,2.22,1.59,4.41,2.91,6.66h-2.34c-1.47-2.31-2.58-4.53-3.3-6.75-.72-2.22-1.08-4.41-1.08-6.6s.36-4.35,1.08-6.57c.72-2.22,1.8-4.47,3.3-6.78h2.34Z"/>
  <polygon points="686.63 92.3 691.46 92.3 691.46 75.62 686.21 76.67 686.21 73.97 691.43 72.92 694.4 72.92 694.4 92.3 699.23 92.3 699.23 94.79 686.63 94.79 686.63 92.3"/>
  <path d="M717.77,73.4v2.7c-.75-.36-1.5-.63-2.25-.81-.78-.18-1.53-.27-2.25-.27-1.98,0-3.48.66-4.5,1.98-1.02,1.32-1.62,3.33-1.74,5.97.57-.84,1.29-1.5,2.16-1.95.87-.45,1.83-.69,2.88-.69,2.19,0,3.93.69,5.19,2.01,1.26,1.32,1.92,3.15,1.92,5.43s-.69,4.05-2.01,5.4-3.09,2.01-5.28,2.01c-2.52,0-4.47-.96-5.79-2.88-1.35-1.92-2.01-4.74-2.01-8.43,0-3.45.81-6.21,2.46-8.25,1.62-2.04,3.84-3.09,6.6-3.09.72,0,1.47.09,2.25.21.75.15,1.53.36,2.37.66ZM711.89,82.67c-1.32,0-2.37.48-3.15,1.38-.78.9-1.17,2.16-1.17,3.72s.39,2.85,1.17,3.75c.78.9,1.83,1.35,3.15,1.35s2.37-.45,3.15-1.35c.78-.9,1.17-2.16,1.17-3.75s-.39-2.82-1.17-3.72c-.78-.9-1.83-1.38-3.15-1.38Z"/>
  <path d="M730.61,72.53c2.43,0,4.29.99,5.61,2.91,1.29,1.95,1.95,4.77,1.95,8.43s-.66,6.51-1.95,8.43c-1.32,1.92-3.18,2.88-5.64,2.88s-4.32-.96-5.61-2.88c-1.29-1.92-1.92-4.74-1.92-8.43s.63-6.48,1.92-8.43c1.29-1.92,3.18-2.91,5.64-2.91ZM730.61,74.87c-1.53,0-2.67.75-3.45,2.25-.78,1.5-1.14,3.75-1.14,6.75s.36,5.25,1.14,6.75c.78,1.5,1.92,2.25,3.45,2.25s2.67-.75,3.45-2.25c.75-1.5,1.14-3.75,1.14-6.75s-.39-5.25-1.14-6.75c-.78-1.5-1.92-2.25-3.45-2.25Z"/>
  <polygon points="743.09 72.92 747.5 72.92 753.08 87.8 758.69 72.92 763.1 72.92 763.1 94.79 760.22 94.79 760.22 75.59 754.58 90.59 751.61 90.59 745.97 75.59 745.97 94.79 743.09 94.79 743.09 72.92"/>
  <path d="M768.44,72.02h2.34c1.44,2.31,2.55,4.56,3.27,6.78.72,2.22,1.11,4.41,1.11,6.57s-.39,4.38-1.11,6.6c-.72,2.22-1.83,4.44-3.27,6.75h-2.34c1.29-2.25,2.25-4.44,2.91-6.66.63-2.19.96-4.41.96-6.69s-.33-4.47-.96-6.66c-.66-2.19-1.62-4.41-2.91-6.69Z"/>
  <polyline class="cd" points="492.32 129.17 522.32 129.17 552.32 129.17"/>
  <path class="cn" d="M522.32,138.17c2.39,0,4.68-.95,6.36-2.64s2.64-3.98,2.64-6.36-.95-4.68-2.64-6.36-3.98-2.64-6.36-2.64-4.68.95-6.36,2.64-2.64,3.98-2.64,6.36.95,4.68,2.64,6.36,3.98,2.64,6.36,2.64Z"/>
  <path class="ci" d="M522.32,138.17c2.39,0,4.68-.95,6.36-2.64s2.64-3.98,2.64-6.36-.95-4.68-2.64-6.36-3.98-2.64-6.36-2.64-4.68.95-6.36,2.64-2.64,3.98-2.64,6.36.95,4.68,2.64,6.36,3.98,2.64,6.36,2.64Z"/>
  <path d="M579.26,117.8h6.09c4.23,0,7.35.9,9.33,2.64,1.98,1.77,2.97,4.53,2.97,8.28s-1.02,6.54-3,8.31c-1.98,1.77-5.1,2.64-9.3,2.64h-6.09v-21.87ZM582.23,120.23v17.01h3.57c3,0,5.22-.66,6.63-2.04,1.38-1.38,2.1-3.54,2.1-6.48s-.72-5.07-2.1-6.45c-1.41-1.35-3.63-2.04-6.63-2.04h-3.57Z"/>
  <path d="M602.24,116.87h2.7v3.42h-2.7v-3.42ZM602.24,123.26h2.7v16.41h-2.7v-16.41Z"/>
  <polygon points="607.7 117.8 626.18 117.8 626.18 120.29 618.41 120.29 618.41 139.67 615.44 139.67 615.44 120.29 607.7 120.29 607.7 117.8"/>
  <rect x="625.82" y="144.62" width="15.57" height="2.1"/>
  <polygon points="642.98 117.8 646.16 117.8 651.59 125.93 657.05 117.8 660.23 117.8 653.21 128.3 660.71 139.67 657.53 139.67 651.38 130.37 645.17 139.67 641.99 139.67 649.79 128 642.98 117.8"/>
  <polygon points="664.58 117.8 667.55 117.8 667.55 137.18 678.2 137.18 678.2 139.67 664.58 139.67 664.58 117.8"/>
  <path d="M697.19,116.9c-1.32,2.28-2.28,4.5-2.91,6.69-.66,2.19-.96,4.41-.96,6.66s.3,4.5.96,6.69c.63,2.22,1.59,4.41,2.91,6.66h-2.34c-1.47-2.31-2.58-4.53-3.3-6.75-.72-2.22-1.08-4.41-1.08-6.6s.36-4.35,1.08-6.57c.72-2.22,1.8-4.47,3.3-6.78h2.34Z"/>
  <path d="M708.77,129.95c1.32,0,2.37-.45,3.15-1.35.78-.9,1.17-2.16,1.17-3.75s-.39-2.82-1.17-3.72c-.78-.9-1.83-1.38-3.15-1.38s-2.37.48-3.15,1.38c-.78.9-1.17,2.16-1.17,3.72s.39,2.85,1.17,3.75c.78.9,1.83,1.35,3.15,1.35ZM702.89,139.22v-2.7c.72.36,1.47.63,2.25.81.75.18,1.5.27,2.25.27,1.92,0,3.42-.63,4.44-1.95,1.02-1.32,1.62-3.3,1.8-6-.6.84-1.32,1.5-2.16,1.95-.87.45-1.83.66-2.88.66-2.22,0-3.96-.66-5.22-1.98-1.26-1.32-1.89-3.12-1.89-5.43s.66-4.02,1.98-5.4c1.32-1.35,3.09-2.04,5.31-2.04,2.52,0,4.47.99,5.79,2.91,1.32,1.95,2.01,4.77,2.01,8.43s-.84,6.21-2.46,8.25c-1.65,2.04-3.84,3.06-6.6,3.06-.75,0-1.5-.09-2.25-.21-.78-.12-1.56-.33-2.37-.63Z"/>
  <path d="M728.21,117.41c2.43,0,4.29.99,5.61,2.91,1.29,1.95,1.95,4.77,1.95,8.43s-.66,6.51-1.95,8.43c-1.32,1.92-3.18,2.88-5.64,2.88s-4.32-.96-5.61-2.88c-1.29-1.92-1.92-4.74-1.92-8.43s.63-6.48,1.92-8.43c1.29-1.92,3.18-2.91,5.64-2.91ZM728.21,119.75c-1.53,0-2.67.75-3.45,2.25-.78,1.5-1.14,3.75-1.14,6.75s.36,5.25,1.14,6.75c.78,1.5,1.92,2.25,3.45,2.25s2.67-.75,3.45-2.25c.75-1.5,1.14-3.75,1.14-6.75s-.39-5.25-1.14-6.75c-.78-1.5-1.92-2.25-3.45-2.25Z"/>
  <path d="M747.29,117.41c2.43,0,4.29.99,5.61,2.91,1.29,1.95,1.95,4.77,1.95,8.43s-.66,6.51-1.95,8.43c-1.32,1.92-3.18,2.88-5.64,2.88s-4.32-.96-5.61-2.88c-1.29-1.92-1.92-4.74-1.92-8.43s.63-6.48,1.92-8.43c1.29-1.92,3.18-2.91,5.64-2.91ZM747.29,119.75c-1.53,0-2.67.75-3.45,2.25-.78,1.5-1.14,3.75-1.14,6.75s.36,5.25,1.14,6.75c.78,1.5,1.92,2.25,3.45,2.25s2.67-.75,3.45-2.25c.75-1.5,1.14-3.75,1.14-6.75s-.39-5.25-1.14-6.75c-.78-1.5-1.92-2.25-3.45-2.25Z"/>
  <polygon points="759.77 117.8 764.18 117.8 769.76 132.68 775.37 117.8 779.78 117.8 779.78 139.67 776.9 139.67 776.9 120.47 771.26 135.47 768.29 135.47 762.65 120.47 762.65 139.67 759.77 139.67 759.77 117.8"/>
  <path d="M785.12,116.9h2.34c1.44,2.31,2.55,4.56,3.27,6.78.72,2.22,1.11,4.41,1.11,6.57s-.39,4.38-1.11,6.6c-.72,2.22-1.83,4.44-3.27,6.75h-2.34c1.29-2.25,2.25-4.44,2.91-6.66.63-2.19.96-4.41.96-6.69s-.33-4.47-.96-6.66c-.66-2.19-1.62-4.41-2.91-6.69Z"/>
  <polyline class="ce" points="492.32 174.04 522.32 174.04 552.32 174.04"/>
  <path class="cm" d="M522.32,183.04c2.39,0,4.68-.95,6.36-2.64s2.64-3.98,2.64-6.36-.95-4.68-2.64-6.36-3.98-2.64-6.36-2.64-4.68.95-6.36,2.64-2.64,3.98-2.64,6.36.95,4.68,2.64,6.36,3.98,2.64,6.36,2.64Z"/>
  <path class="ci" d="M522.32,183.04c2.39,0,4.68-.95,6.36-2.64s2.64-3.98,2.64-6.36-.95-4.68-2.64-6.36-3.98-2.64-6.36-2.64-4.68.95-6.36,2.64-2.64,3.98-2.64,6.36.95,4.68,2.64,6.36,3.98,2.64,6.36,2.64Z"/>
  <polygon points="579.26 162.67 583.67 162.67 589.25 177.55 594.86 162.67 599.27 162.67 599.27 184.54 596.39 184.54 596.39 165.34 590.75 180.34 587.78 180.34 582.14 165.34 582.14 184.54 579.26 184.54 579.26 162.67"/>
  <polygon points="605.15 162.67 609.56 162.67 615.14 177.55 620.75 162.67 625.16 162.67 625.16 184.54 622.28 184.54 622.28 165.34 616.64 180.34 613.67 180.34 608.03 165.34 608.03 184.54 605.15 184.54 605.15 162.67"/>
  <path d="M631.04,162.67h6.09c4.23,0,7.35.9,9.33,2.64,1.98,1.77,2.97,4.53,2.97,8.28s-1.02,6.54-3,8.31c-1.98,1.77-5.1,2.64-9.3,2.64h-6.09v-21.87ZM634.01,165.1v17.01h3.57c3,0,5.22-.66,6.63-2.04,1.38-1.38,2.1-3.54,2.1-6.48s-.72-5.07-2.1-6.45c-1.41-1.35-3.63-2.04-6.63-2.04h-3.57Z"/>
  <path d="M654.02,161.74h2.7v3.42h-2.7v-3.42ZM654.02,168.13h2.7v16.41h-2.7v-16.41Z"/>
  <polygon points="659.48 162.67 677.96 162.67 677.96 165.16 670.19 165.16 670.19 184.54 667.22 184.54 667.22 165.16 659.48 165.16 659.48 162.67"/>
  <path d="M696.71,161.77c-1.32,2.28-2.28,4.5-2.91,6.69-.66,2.19-.96,4.41-.96,6.66s.3,4.5.96,6.69c.63,2.22,1.59,4.41,2.91,6.66h-2.34c-1.47-2.31-2.58-4.53-3.3-6.75-.72-2.22-1.08-4.41-1.08-6.6s.36-4.35,1.08-6.57c.72-2.22,1.8-4.47,3.3-6.78h2.34Z"/>
  <path d="M711.29,172.75c1.41.3,2.52.93,3.3,1.89.78.96,1.2,2.16,1.2,3.54,0,2.16-.75,3.84-2.22,5.01-1.5,1.17-3.6,1.74-6.33,1.74-.93,0-1.89-.09-2.85-.27-.96-.15-1.98-.42-3-.78v-2.85c.81.48,1.71.84,2.7,1.08.96.24,1.98.36,3.06.36,1.86,0,3.27-.36,4.23-1.08.96-.72,1.47-1.8,1.47-3.21,0-1.26-.45-2.28-1.35-3-.9-.72-2.16-1.11-3.78-1.11h-2.55v-2.43h2.67c1.44,0,2.55-.27,3.33-.87.78-.57,1.17-1.41,1.17-2.52s-.42-1.98-1.2-2.58c-.81-.6-1.95-.9-3.42-.9-.81,0-1.68.09-2.61.27s-1.95.45-3.06.81v-2.64c1.11-.3,2.16-.54,3.15-.69.96-.15,1.89-.24,2.79-.24,2.22,0,3.99.51,5.31,1.53,1.32,1.02,1.98,2.4,1.98,4.14,0,1.2-.36,2.22-1.05,3.06s-1.68,1.44-2.94,1.74Z"/>
  <path d="M721.13,162.67h7.56c2.25,0,3.99.48,5.22,1.41,1.2.96,1.83,2.28,1.83,3.99,0,1.35-.33,2.43-.96,3.21s-1.53,1.29-2.73,1.47c1.44.33,2.58.99,3.39,1.98.78.99,1.2,2.22,1.2,3.69,0,1.98-.69,3.48-2.01,4.53-1.32,1.08-3.21,1.59-5.64,1.59h-7.86v-21.87ZM724.1,165.1v6.6h4.38c1.44,0,2.49-.27,3.21-.81s1.08-1.35,1.08-2.49c0-1.08-.36-1.92-1.08-2.46s-1.77-.84-3.21-.84h-4.38ZM724.1,174.1v8.01h4.74c1.59,0,2.76-.33,3.54-.99.75-.66,1.14-1.65,1.14-3.03s-.39-2.34-1.14-3c-.78-.66-1.95-.99-3.54-.99h-4.74Z"/>
  <path d="M741.17,161.77h2.34c1.44,2.31,2.55,4.56,3.27,6.78.72,2.22,1.11,4.41,1.11,6.57s-.39,4.38-1.11,6.6c-.72,2.22-1.83,4.44-3.27,6.75h-2.34c1.29-2.25,2.25-4.44,2.91-6.66.63-2.19.96-4.41.96-6.69s-.33-4.47-.96-6.66c-.66-2.19-1.62-4.41-2.91-6.69Z"/>
</svg>