<?xml version="1.0" encoding="UTF-8"?>
<svg id="a" data-name="Layer_1" xmlns="http://www.w3.org/2000/svg" xmlns:xlink="http://www.w3.org/1999/xlink" viewBox="0 0 1920 640">
  <defs>
    <style>
      .g {
        fill: none;
      }

      .h, .i, .j, .k, .l, .m, .n {
        font-size: 123px;
      }

      .h, .o, .j, .p, .q, .l, .r, .s, .t, .u, .n {
        font-family: STIXGeneral-Italic, STIXGeneral;
        font-style: italic;
      }

      .h, .r {
        fill: #63c89c;
      }

      .v {
        letter-spacing: 0em;
      }

      .i {
        font-family: STIXVariants-Regular, STIXVariants;
      }

      .o, .p {
        font-size: 74px;
      }

      .o, .q, .l, .s {
        fill: #d66a49;
      }

      .w, .x, .y, .p, .t, .n {
        fill: #46439a;
      }

      .w, .x, .y, .m {
        font-family: STIXGeneral-Regular, STIXGeneral;
      }

      .w, .q, .r, .t, .u {
        font-size: 87.33px;
      }

      .x, .s {
        font-size: 52.54px;
      }

      .y {
        font-size: 62px;
      }

      .z {
        font-family: HelveticaNeue-Medium, 'Helvetica Neue';
        font-size: 61px;
        font-weight: 500;
      }

      .k {
        font-family: STIXSizeOneSym-Regular, STIXSizeOneSym;
      }

      .aa {
        fill: #fff;
      }

      .ab {
        clip-path: url(#e);
      }

      .ac {
        clip-path: url(#d);
      }

      .ad {
        clip-path: url(#f);
      }

      .ae {
        clip-path: url(#c);
      }

      .af {
        clip-path: url(#b);
      }

      .ag {
        letter-spacing: -.02em;
      }
    </style>
    <clipPath id="b">
      <rect class="g" width="1920" height="640"/>
    </clipPath>
    <clipPath id="c">
      <rect class="g" x="623.9" y="48.66" width="453.73" height="110.36"/>
    </clipPath>
    <clipPath id="d">
      <rect class="g" x="933.14" y="89.36" width="49.81" height="53.71"/>
    </clipPath>
    <clipPath id="e">
      <rect class="g" x="1075.63" y="89.28" width="59.26" height="53.87"/>
    </clipPath>
    <clipPath id="f">
      <rect class="g" width="1920" height="640"/>
    </clipPath>
  </defs>
  <g class="af">
    <path class="aa" d="M115.48,25.58h1689.05c33.47,0,53.55,0,66.94,5.59,19.3,7.02,34.5,22.23,41.53,41.53,5.59,13.39,5.59,33.47,5.59,66.94v360.71c0,33.47,0,53.55-5.59,66.94-7.03,19.3-22.23,34.5-41.53,41.53-13.39,5.59-33.47,5.59-66.94,5.59H115.48c-33.47,0-53.55,0-66.94-5.59-19.3-7.02-34.5-22.23-41.53-41.53-5.59-13.39-5.59-33.47-5.59-66.94V139.64c0-33.47,0-53.55,5.59-66.94,7.02-19.3,22.23-34.5,41.53-41.53,13.39-5.59,33.47-5.59,66.94-5.59Z"/>
    <text class="j" transform="translate(133.16 334.26)"><tspan x="0" y="0">u</tspan></text>
    <text class="u" transform="translate(190.34 365.01)"><tspan x="0" y="0">t</tspan></text>
    <text class="m" transform="translate(214.62 334.26)"><tspan x="0" y="0">(</tspan></text>
    <text class="l" transform="translate(255.58 334.26)"><tspan x="0" y="0">x</tspan></text>
    <text class="q" transform="translate(305.87 365.01)"><tspan x="0" y="0">t</tspan></text>
    <text class="m" transform="translate(330.14 334.26)"><tspan x="0" y="0">)</tspan></text>
    <text class="m" transform="translate(405.27 334.26)"><tspan x="0" y="0">=</tspan></text>
    <text class="k" transform="translate(523.69 398.35)"><tspan x="0" y="0">∑</tspan></text>
    <text class="t" transform="translate(569.8 484.57)"><tspan x="0" y="0">x</tspan></text>
    <text class="y" transform="translate(605.5 506.4)"><tspan x="0" y="0">0</tspan></text>
    <text class="j" transform="translate(703.11 334.26)"><tspan x="0" y="0">u</tspan></text>
    <text class="u" transform="translate(760.29 365.01)"><tspan x="0" y="0">t</tspan></text>
    <text class="m" transform="translate(784.56 334.26)"><tspan x="0" y="0">(</tspan></text>
    <text class="l" transform="translate(825.52 334.26)"><tspan x="0" y="0">x</tspan></text>
    <text class="q" transform="translate(875.81 365.01)"><tspan x="0" y="0">t</tspan></text>
    <text class="i" transform="translate(913.76 333.96)"><tspan x="0" y="0">|</tspan></text>
    <text class="n" transform="translate(966.78 334.26)"><tspan x="0" y="0">x</tspan></text>
    <text class="w" transform="translate(1017.07 365.01)"><tspan x="0" y="0">0</tspan></text>
    <text class="m" transform="translate(1060.74 334.26)"><tspan x="0" y="0">)</tspan></text>
    <text class="h" transform="translate(1148.19 242.76)"><tspan x="0" y="0">p</tspan></text>
    <text class="r" transform="translate(1205.86 273.51)"><tspan x="0" y="0">t</tspan></text>
    <text class="m" transform="translate(1230.14 242.76)"><tspan x="0" y="0">(</tspan></text>
    <text class="l" transform="translate(1271.1 242.76)"><tspan x="0" y="0">x</tspan></text>
    <text class="q" transform="translate(1321.39 273.51)"><tspan x="0" y="0">t</tspan></text>
    <text class="i" transform="translate(1359.33 242.45)"><tspan x="0" y="0">|</tspan></text>
    <text class="n" transform="translate(1412.36 242.76)"><tspan x="0" y="0">x</tspan></text>
    <text class="w" transform="translate(1462.65 273.51)"><tspan x="0" y="0">0</tspan></text>
    <text class="m" transform="translate(1506.32 242.76)"><tspan x="0" y="0">)</tspan></text>
    <rect x="1135.89" y="299.09" width="423.68" height="8.12"/>
    <text class="h" transform="translate(1228 426.51)"><tspan x="0" y="0">p</tspan></text>
    <text class="r" transform="translate(1286.19 453.57)"><tspan x="0" y="0">t</tspan></text>
    <text class="m" transform="translate(1310.46 426.51)"><tspan x="0" y="0">(</tspan></text>
    <text class="l" transform="translate(1351.42 426.51)"><tspan x="0" y="0">x</tspan></text>
    <text class="q" transform="translate(1402.23 453.57)"><tspan x="0" y="0">t</tspan></text>
    <text class="m" transform="translate(1426.51 426.51)"><tspan x="0" y="0">)</tspan></text>
    <text class="j" transform="translate(1599.92 334.26)"><tspan x="0" y="0">q</tspan></text>
    <text class="m" transform="translate(1661.42 334.26)"><tspan x="0" y="0">(</tspan></text>
    <text class="n" transform="translate(1702.38 334.26)"><tspan x="0" y="0">x</tspan></text>
    <text class="w" transform="translate(1752.67 365.01)"><tspan x="0" y="0">0</tspan></text>
    <text class="m" transform="translate(1796.33 334.26)"><tspan x="0" y="0">)</tspan></text>
    <text class="z" transform="translate(1174.92 559.88)"><tspan x="0" y="0">Path </tspan><tspan class="ag" x="146.89" y="0">W</tspan><tspan x="203.43" y="0">eight</tspan></text>
  </g>
  <g class="ae">
    <text class="z" transform="translate(642.27 125.83)"><tspan x="0" y="0">Path f</tspan><tspan class="ag" x="166.1" y="0">r</tspan><tspan class="v" x="186.54" y="0" xml:space="preserve">om     to</tspan></text>
  </g>
  <g class="ac">
    <text class="o" transform="translate(936.13 122.99)"><tspan x="0" y="0">x</tspan></text>
    <text class="s" transform="translate(966.39 141.49)"><tspan x="0" y="0">t</tspan></text>
  </g>
  <g class="ab">
    <text class="p" transform="translate(1078.63 122.91)"><tspan x="0" y="0">x</tspan></text>
    <text class="x" transform="translate(1108.89 141.41)"><tspan x="0" y="0">0</tspan></text>
  </g>
  <g class="ad">
    <text class="z" transform="translate(100.97 559.88)"><tspan x="0" y="0">Marginal Flow</tspan></text>
  </g>
</svg>