<?xml version="1.0" encoding="UTF-8"?>
<svg id="a" data-name="Layer_1" xmlns="http://www.w3.org/2000/svg" xmlns:xlink="http://www.w3.org/1999/xlink" viewBox="0 0 1920 640">
  <defs>
    <style>
      .g {
        fill: none;
      }

      .h, .i, .j, .k, .l, .m, .n {
        font-size: 123px;
      }

      .h, .o, .j, .p, .q, .k, .r, .s, .t, .u, .n {
        font-family: STIXGeneral-Italic, STIXGeneral;
        font-style: italic;
      }

      .h, .r {
        fill: #63c89c;
      }

      .v {
        letter-spacing: 0em;
      }

      .i {
        font-family: STIXVariants-Regular, STIXVariants;
      }

      .o, .p {
        font-size: 74px;
      }

      .o, .q, .k, .s {
        fill: #d66a49;
      }

      .w, .x, .y, .p, .t, .n {
        fill: #46439a;
      }

      .w, .x, .y, .m {
        font-family: STIXGeneral-Regular, STIXGeneral;
      }

      .w, .q, .r, .t, .u {
        font-size: 87.33px;
      }

      .x, .s {
        font-size: 52.54px;
      }

      .y {
        font-size: 62px;
      }

      .z {
        font-family: HelveticaNeue-Medium, 'Helvetica Neue';
        font-size: 61px;
        font-weight: 500;
      }

      .aa {
        fill: #fff;
      }

      .ab {
        clip-path: url(#e);
      }

      .ac {
        clip-path: url(#d);
      }

      .ad {
        clip-path: url(#f);
      }

      .ae {
        clip-path: url(#c);
      }

      .af {
        clip-path: url(#b);
      }

      .l {
        font-family: STIXIntegralsUpD-Regular, STIXIntegralsUpD;
      }

      .ag {
        letter-spacing: -.02em;
      }
    </style>
    <clipPath id="b">
      <rect class="g" width="1920" height="640"/>
    </clipPath>
    <clipPath id="c">
      <rect class="g" x="545.61" y="49" width="453.73" height="110.36"/>
    </clipPath>
    <clipPath id="d">
      <rect class="g" x="854.85" y="89.7" width="49.81" height="53.71"/>
    </clipPath>
    <clipPath id="e">
      <rect class="g" x="997.34" y="89.62" width="59.26" height="53.87"/>
    </clipPath>
    <clipPath id="f">
      <rect class="g" width="1920" height="640"/>
    </clipPath>
  </defs>
  <g class="af">
    <path class="aa" d="M115.48,25.58h1689.05c33.47,0,53.55,0,66.94,5.59,19.3,7.02,34.5,22.23,41.53,41.53,5.59,13.39,5.59,33.47,5.59,66.94v360.71c0,33.47,0,53.55-5.59,66.94-7.03,19.3-22.23,34.5-41.53,41.53-13.39,5.59-33.47,5.59-66.94,5.59H115.48c-33.47,0-53.55,0-66.94-5.59-19.3-7.02-34.5-22.23-41.53-41.53-5.59-13.39-5.59-33.47-5.59-66.94V139.64c0-33.47,0-53.55,5.59-66.94,7.02-19.3,22.23-34.5,41.53-41.53,13.39-5.59,33.47-5.59,66.94-5.59Z"/>
    <text class="j" transform="translate(91.87 334.6)"><tspan x="0" y="0">u</tspan></text>
    <text class="u" transform="translate(149.05 365.35)"><tspan x="0" y="0">t</tspan></text>
    <text class="m" transform="translate(173.33 334.6)"><tspan x="0" y="0">(</tspan></text>
    <text class="k" transform="translate(214.29 334.6)"><tspan x="0" y="0">x</tspan></text>
    <text class="q" transform="translate(264.58 365.35)"><tspan x="0" y="0">t</tspan></text>
    <text class="m" transform="translate(288.85 334.6)"><tspan x="0" y="0">)</tspan></text>
    <text class="m" transform="translate(363.98 334.6)"><tspan x="0" y="0">=</tspan></text>
    <text class="l" transform="translate(482.4 409.94)"><tspan x="0" y="0">∫</tspan></text>
    <text class="t" transform="translate(539.84 462.68)"><tspan x="0" y="0">x</tspan></text>
    <text class="y" transform="translate(575.92 481.89)"><tspan x="0" y="0">0</tspan></text>
    <text class="j" transform="translate(627.42 334.6)"><tspan x="0" y="0">u</tspan></text>
    <text class="u" transform="translate(684.6 365.35)"><tspan x="0" y="0">t</tspan></text>
    <text class="m" transform="translate(708.88 334.6)"><tspan x="0" y="0">(</tspan></text>
    <text class="k" transform="translate(749.83 334.6)"><tspan x="0" y="0">x</tspan></text>
    <text class="q" transform="translate(800.12 365.35)"><tspan x="0" y="0">t</tspan></text>
    <text class="i" transform="translate(838.07 334.3)"><tspan x="0" y="0">|</tspan></text>
    <text class="n" transform="translate(891.1 334.6)"><tspan x="0" y="0">x</tspan></text>
    <text class="w" transform="translate(941.39 365.35)"><tspan x="0" y="0">0</tspan></text>
    <text class="m" transform="translate(985.05 334.6)"><tspan x="0" y="0">)</tspan></text>
    <text class="h" transform="translate(1072.5 243.1)"><tspan x="0" y="0">p</tspan></text>
    <text class="r" transform="translate(1130.17 273.85)"><tspan x="0" y="0">t</tspan></text>
    <text class="m" transform="translate(1154.45 243.1)"><tspan x="0" y="0">(</tspan></text>
    <text class="k" transform="translate(1195.41 243.1)"><tspan x="0" y="0">x</tspan></text>
    <text class="q" transform="translate(1245.7 273.85)"><tspan x="0" y="0">t</tspan></text>
    <text class="i" transform="translate(1283.65 242.79)"><tspan x="0" y="0">|</tspan></text>
    <text class="n" transform="translate(1336.67 243.1)"><tspan x="0" y="0">x</tspan></text>
    <text class="w" transform="translate(1386.96 273.85)"><tspan x="0" y="0">0</tspan></text>
    <text class="m" transform="translate(1430.63 243.1)"><tspan x="0" y="0">)</tspan></text>
    <rect x="1060.2" y="299.42" width="423.68" height="8.12"/>
    <text class="h" transform="translate(1152.31 426.85)"><tspan x="0" y="0">p</tspan></text>
    <text class="r" transform="translate(1210.5 453.91)"><tspan x="0" y="0">t</tspan></text>
    <text class="m" transform="translate(1234.78 426.85)"><tspan x="0" y="0">(</tspan></text>
    <text class="k" transform="translate(1275.73 426.85)"><tspan x="0" y="0">x</tspan></text>
    <text class="q" transform="translate(1326.54 453.91)"><tspan x="0" y="0">t</tspan></text>
    <text class="m" transform="translate(1350.82 426.85)"><tspan x="0" y="0">)</tspan></text>
    <text class="j" transform="translate(1524.23 334.6)"><tspan x="0" y="0">q</tspan></text>
    <text class="m" transform="translate(1585.73 334.6)"><tspan x="0" y="0">(</tspan></text>
    <text class="n" transform="translate(1626.69 334.6)"><tspan x="0" y="0">x</tspan></text>
    <text class="w" transform="translate(1676.98 365.35)"><tspan x="0" y="0">0</tspan></text>
    <text class="m" transform="translate(1720.65 334.6)"><tspan x="0" y="0">)</tspan></text>
    <text class="j" transform="translate(1761.6 334.6)"><tspan x="0" y="0">d</tspan></text>
    <text class="n" transform="translate(1823.1 334.6)"><tspan x="0" y="0">x</tspan></text>
    <text class="w" transform="translate(1873.4 365.35)"><tspan x="0" y="0">0</tspan></text>
    <text class="z" transform="translate(1096.63 560.21)"><tspan x="0" y="0">Path </tspan><tspan class="ag" x="146.89" y="0">W</tspan><tspan x="203.43" y="0">eight</tspan></text>
  </g>
  <g class="ae">
    <text class="z" transform="translate(563.98 126.17)"><tspan x="0" y="0">Path f</tspan><tspan class="ag" x="166.1" y="0">r</tspan><tspan class="v" x="186.54" y="0" xml:space="preserve">om     to</tspan></text>
  </g>
  <g class="ac">
    <text class="o" transform="translate(857.84 123.33)"><tspan x="0" y="0">x</tspan></text>
    <text class="s" transform="translate(888.1 141.83)"><tspan x="0" y="0">t</tspan></text>
  </g>
  <g class="ab">
    <text class="p" transform="translate(1000.34 123.25)"><tspan x="0" y="0">x</tspan></text>
    <text class="x" transform="translate(1030.6 141.75)"><tspan x="0" y="0">0</tspan></text>
  </g>
  <g class="ad">
    <text class="z" transform="translate(22.68 560.21)"><tspan x="0" y="0">Marginal Flow</tspan></text>
  </g>
</svg>